<svg width="158" height="158" viewBox="0 0 158 158" fill="none" xmlns="http://www.w3.org/2000/svg">
<g clip-path="url(#clip0_154_52)">
<path d="M0 0H158V158H0V0Z" fill="url(#paint0_linear_154_52)"/>
<path d="M111.405 50.5029L97.483 33.8118C96.2064 32.3027 94.5298 31.185 92.646 30.5866V51.2102H111.887C111.741 50.9804 111.586 50.7328 111.405 50.5029Z" fill="white"/>
<path d="M92.6458 58.2834C90.77 58.2834 88.9705 57.5376 87.6447 56.2119C86.3181 54.8853 85.5731 53.0867 85.5731 51.2107V29.993H53.746C50.9323 29.993 48.2343 31.1108 46.2445 33.0998C44.2555 35.0897 43.1377 37.7885 43.1377 40.6013V118.399C43.1377 121.213 44.2555 123.911 46.2445 125.901C48.2344 127.89 50.9323 129.008 53.746 129.008H103.254C106.068 129.008 108.766 127.89 110.756 125.901C112.745 123.911 113.863 121.213 113.863 118.399V58.2826L92.6458 58.2834ZM60.8187 54.7467H67.8912C69.1546 54.7467 70.3223 55.4205 70.9542 56.5155C71.5859 57.6096 71.5859 58.9572 70.9542 60.0513C70.3224 61.1454 69.1547 61.8192 67.8912 61.8192H60.8187C59.5552 61.8192 58.3884 61.1454 57.7566 60.0513C57.1247 58.9572 57.1248 57.6096 57.7566 56.5155C58.3883 55.4205 59.5552 54.7467 60.8187 54.7467ZM96.1812 112.813C94.0684 112.807 92.0567 111.907 90.6432 110.337C90.466 110.153 90.2747 109.982 90.0703 109.828C89.8009 109.944 89.5588 110.118 89.3631 110.337C87.9496 111.909 85.9342 112.808 83.8197 112.808C81.7061 112.808 79.6907 111.909 78.2773 110.337C78.0965 110.153 77.9026 109.983 77.6973 109.828C77.4192 109.939 77.1709 110.113 76.9717 110.337C75.5556 111.907 73.5419 112.807 71.4275 112.813C70.164 112.813 68.9963 112.139 68.3645 111.044C67.7328 109.95 67.7328 108.602 68.3645 107.508C68.9962 106.414 70.164 105.74 71.4275 105.74C71.6723 105.613 71.8925 105.443 72.0776 105.237C73.4928 103.666 75.5081 102.769 77.6228 102.769C79.7375 102.769 81.7527 103.666 83.1679 105.237C83.3478 105.421 83.5399 105.591 83.7444 105.747C84.0163 105.635 84.2594 105.461 84.4515 105.237C85.8641 103.666 87.8777 102.769 89.9913 102.769C92.104 102.769 94.1185 103.666 95.5301 105.237C95.7065 105.423 95.8969 105.593 96.0996 105.747C97.0419 105.745 97.9456 106.115 98.615 106.778C99.2835 107.441 99.6626 108.342 99.6678 109.283C99.6749 110.214 99.3108 111.109 98.6562 111.771C98.0026 112.433 97.1122 112.807 96.1812 112.813ZM96.1812 93.6463H60.8187C59.5552 93.6463 58.3884 92.9716 57.7566 91.8775C57.1248 90.7835 57.1248 89.4358 57.7566 88.3417C58.3883 87.2477 59.5552 86.5738 60.8187 86.5738H96.1812C97.4446 86.5738 98.6123 87.2476 99.2433 88.3417C99.875 89.4358 99.875 90.7835 99.2433 91.8775C98.6124 92.9716 97.4446 93.6463 96.1812 93.6463ZM96.1812 79.5011H60.8187C59.5552 79.5011 58.3884 78.8264 57.7566 77.7323C57.1247 76.6382 57.1248 75.2906 57.7566 74.1965C58.3883 73.1024 59.5552 72.4286 60.8187 72.4286H96.1812C97.4446 72.4286 98.6123 73.1024 99.2433 74.1965C99.875 75.2906 99.875 76.6383 99.2433 77.7323C98.6124 78.8264 97.4446 79.5011 96.1812 79.5011Z" fill="white"/>
</g>
<defs>
<linearGradient id="paint0_linear_154_52" x1="79" y1="158" x2="79" y2="0" gradientUnits="userSpaceOnUse">
<stop stop-color="#E11D48"/>
<stop offset="0.58" stop-color="#BE123C"/>
</linearGradient>
<clipPath id="clip0_154_52">
<rect width="158" height="158" rx="6" fill="white"/>
</clipPath>
</defs>
</svg>
