<svg width="146" height="146" viewBox="0 0 146 146" fill="none" xmlns="http://www.w3.org/2000/svg">
<rect x="0.446777" width="145.279" height="145.279" rx="6" fill="#ED1B2E"/>
<path d="M70.6578 14H73.7408H133.806C134.108 14.4388 134.162 14.8206 134.18 15.3329C134.33 19.6221 134.203 23.9549 134.205 28.2478L134.206 53.1836L134.202 64.5003C134.201 66.0222 134.437 67.9819 134.122 69.4471C134.08 69.6412 134 69.8205 133.903 69.9947C134.417 71.1453 134.489 74.611 134.005 75.7917C133.983 75.8438 133.958 75.8947 133.934 75.9456C134.51 77.3586 134.42 130.705 134.014 131.632C133.957 131.761 133.886 131.883 133.806 132H73.4413H71.4692C71.0689 131.501 69.7217 131.395 69.045 131.149C67.7977 130.698 66.612 130.025 65.4628 129.384C63.0975 128.064 60.9622 125.307 59.0115 123.439L45.7995 110.827L25.1832 91.1773C21.641 87.8065 17.7601 84.5113 14.497 80.8996C13.033 79.2792 11.8499 77.45 11.2954 75.3597C10.5723 72.6345 11.2152 69.4308 12.803 67.0769C14.686 64.2852 17.7431 61.8837 20.2145 59.5448L31.7352 48.5962L53.8378 27.5178C57.223 24.2868 60.5039 20.8543 64.0104 17.7547C65.0214 16.8611 66.1252 16.0198 67.3395 15.3912C68.1775 14.9578 70.237 14.6726 70.6578 14ZM73.4413 132H133.806C133.886 131.883 133.957 131.761 134.014 131.632C134.42 130.705 134.51 77.3586 133.934 75.9456C133.544 77.8434 132.469 79.3073 131.175 80.7501C127.837 84.4697 123.894 87.8705 120.254 91.3368L100.974 109.751L87.5644 122.621C85.0101 125.068 82.3872 128.031 79.3915 129.958C77.4845 131.184 75.4758 131.215 73.4413 132ZM73.7408 14C76.5956 14.8989 78.7238 15.3782 81.1434 17.248C83.5453 19.1037 85.6378 21.4381 87.8078 23.536L98.9799 34.2338L120.153 54.418C123.011 57.1503 126.007 59.8045 128.779 62.609C130.245 64.0907 132.353 66.0456 133.296 67.8596C133.601 68.4453 133.892 69.3388 133.903 69.9947C134 69.8205 134.08 69.6412 134.122 69.4471C134.437 67.9819 134.201 66.0222 134.202 64.5003L134.206 53.1836L134.205 28.2478C134.203 23.9549 134.33 19.6221 134.18 15.3329C134.162 14.8206 134.108 14.4388 133.806 14H73.7408Z" fill="white"/>
<path d="M93.0079 37.6611L93.4911 37.7952C93.4742 37.8866 93.4537 37.977 93.4234 38.0654C93.3039 38.4125 56.3168 77.1858 54.7878 77.9945C47.1793 77.9604 39.5092 78.2025 31.9105 77.8874C31.8053 77.8507 31.6974 77.8074 31.6065 77.7434C31.1135 77.3969 31.035 77.0118 30.936 76.4824C31.1848 75.539 31.8873 74.9439 32.6666 74.3618C34.2259 73.1966 36.0589 72.2671 37.735 71.2566L47.7249 65.2236L78.694 46.4886C83.3987 43.676 88.7053 41.0049 93.0079 37.6611Z" fill="#ED1B2E"/>
<path d="M94.3179 37.451C94.5862 37.446 94.7699 37.5073 95.0151 37.6064C95.3967 38.5448 95.2005 66.5965 95.1675 70.3192C95.147 72.5889 95.2968 74.997 93.4459 76.7001C92.6204 77.4595 91.5407 77.6861 90.4352 77.8385C87.5804 78.2323 84.5019 78.017 81.6203 78.0123L65.822 77.9442C65.6811 77.9788 65.4422 77.9423 65.2924 77.9363C65.2139 77.5079 65.3593 77.3402 65.5955 76.9763C67.8039 73.5742 70.5071 70.3041 72.9214 67.0135L88.2624 46.1099C89.5445 44.3683 94.0995 39.1272 94.3179 37.451Z" fill="#ED1B2E"/>
</svg>
