<svg width="146" height="146" viewBox="0 0 146 146" fill="none" xmlns="http://www.w3.org/2000/svg">
<rect x="0.26416" width="145.279" height="145.279" rx="6" fill="#FDE12A"/>
<path d="M40.7619 16.0218L90.1799 16.0177L105.545 16.009C109.288 16.0086 113.081 15.9257 116.812 16.2707C119.145 16.4864 121.497 17.0148 123.601 18.0702C125.968 19.2576 127.586 21.3551 128.396 23.8454C129.158 26.1878 129.064 28.6907 128.841 31.1141C128.439 35.4793 127.268 39.8862 126.358 44.1724C125.179 49.7302 124.085 57.6339 121.543 62.577C118.709 68.0864 114.368 69.0583 108.947 70.807C111.911 70.9578 115.344 71.7169 117.546 73.8515C119.11 75.3672 119.712 77.4585 119.722 79.5902C119.74 83.77 117.718 90.8938 116.778 95.3025C115.362 101.951 114.4 109.397 111.974 115.71C110.84 118.663 109.229 121.457 106.982 123.703C104.313 126.372 100.85 127.755 97.1828 128.415C93.3643 129.102 89.344 128.991 85.4775 128.989L72.9835 128.977L27.7946 128.983L17 129C19.1234 118.041 21.5825 107.123 23.8844 96.1988L34.6726 44.992C37.6213 45.2473 40.6907 45.0834 43.6514 45.0823L59.9371 45.0606C58.9164 51.1466 57.4244 57.2141 56.1419 63.2537C64.1387 63.3573 72.1461 63.2754 80.1444 63.2763C84.705 63.2768 89.6706 63.6795 94.1677 63.0087C95.2732 62.8438 96.0315 62.5984 96.8632 61.8098C97.5108 61.1955 97.9616 60.4162 98.2677 59.5822C99.1658 57.1325 101.955 44.0551 101.99 41.5872C102.002 40.6886 101.961 39.7005 101.281 39.0336C100.617 38.3818 99.7139 38.0925 98.8067 37.9896C96.2382 37.6984 93.5449 37.8352 90.9622 37.8389L78.5889 37.8482L36.2909 37.8506C37.1649 34.4668 37.7645 30.9559 38.4714 27.5299C39.2601 23.711 40.1666 19.8748 40.7619 16.0218Z" fill="#222021"/>
<path d="M52.7377 79.1068L78.1426 79.126C82.1048 79.1253 86.337 78.7928 90.2661 79.211C91.3273 79.3237 92.7341 79.5655 93.4251 80.4743C94.1909 81.4803 94.0266 83.1583 93.8602 84.3379C93.509 86.8283 92.8088 89.2875 92.2948 91.7496C91.5248 95.4381 91.0932 99.6696 89.6526 103.143C89.1781 104.287 88.6245 105.166 87.6296 105.921C86.5697 106.435 85.517 106.66 84.3549 106.77C79.9485 107.188 75.2917 106.908 70.8585 106.908L47 106.854C48.6395 97.5669 50.934 88.3681 52.7377 79.1068Z" fill="#FDE12A"/>
</svg>
