<svg width="45" height="45" viewBox="0 0 45 45" fill="none" xmlns="http://www.w3.org/2000/svg">
<rect width="45" height="45" rx="6" fill="#FFCB01"/>
<g clip-path="url(#clip0_653_877)">
<path d="M2 9H2.01708H42.9786H42.9947C43.0241 9.59062 43.0002 10.1952 43 10.7871V14.2068L42.9998 24.659V32.3662L43 34.7826C43.0003 35.1807 43.029 35.6046 42.9947 36H42.9786H2.01708H2V9ZM2 9V36H2.01708V9H2ZM42.9786 9C42.9969 9.54792 42.9834 10.1009 42.9833 10.6493L42.9829 13.6724L42.9827 22.7975V31.558L42.9831 34.4426C42.9833 34.9607 42.9973 35.4826 42.9786 36H42.9947C43.029 35.6046 43.0003 35.1807 43 34.7826L42.9998 32.3662V24.659L43 14.2068V10.7871C43.0002 10.1952 43.0241 9.59062 42.9947 9H42.9786Z" fill="#FFCB01"/>
<path d="M42.9785 9H42.9946C43.024 9.59062 43 10.1952 42.9999 10.7871V14.2068L42.9997 24.659V32.3662L42.9999 34.7826C43.0002 35.1807 43.0289 35.6046 42.9946 36H42.9785C42.9971 35.4826 42.9831 34.9607 42.983 34.4426L42.9826 31.558V22.7975L42.9828 13.6724L42.9831 10.6493C42.9833 10.1009 42.9968 9.54792 42.9785 9Z" fill="#FFCB01" fill-opacity="0.92549"/>
<path d="M2 9H2.01708V36H2V9Z" fill="#FFCB01" fill-opacity="0.92549"/>
<path d="M37.8235 23.1523C38.0618 23.1032 38.8392 23.1405 39.1372 23.1409L42.3386 23.1404C42.3495 23.1599 42.3572 23.1745 42.3627 23.1964C42.3861 23.2902 42.3837 23.4668 42.3386 23.5504H42.0904H37.5361C37.5418 23.5468 37.5476 23.5432 37.553 23.5394C37.6224 23.4915 37.8091 23.2408 37.8235 23.1523Z" fill="#D80613"/>
<path d="M2.63184 24.6699H7.45667L7.29923 24.8958L7.16408 25.0811H2.63184V24.6699Z" fill="#D80613"/>
<path d="M37.2893 23.9105C37.4661 23.8873 37.6597 23.9021 37.8386 23.9023L38.8507 23.9035L42.3397 23.9029C42.3503 23.9211 42.3576 23.9344 42.3629 23.9552C42.3861 24.048 42.3832 24.2321 42.3386 24.315H42.0563H36.998C37.0847 24.2538 37.2536 24.0153 37.2893 23.9105Z" fill="#D80613"/>
<path d="M2.63236 23.9033L8.00716 23.9034L7.83795 24.1366L7.71358 24.3154H2.63184L2.63236 23.9033Z" fill="#D80613"/>
<path d="M2.63184 23.1406H8.54675L8.38827 23.3682L8.25538 23.55H2.63184V23.1406Z" fill="#D80613"/>
<path d="M36.729 24.6871C36.9296 24.6311 37.9811 24.6709 38.2597 24.6711L42.3392 24.6706C42.3471 24.6839 42.3517 24.6903 42.3568 24.7041C42.3903 24.7959 42.3807 24.9933 42.3426 25.0818H42.0901H36.4424C36.4485 25.0776 36.4547 25.0736 36.4607 25.0693C36.5309 25.0184 36.7161 24.7761 36.729 24.6871Z" fill="#D80613"/>
<path d="M24.0696 23.1407L27.7125 23.1406C27.2652 23.7961 26.7912 24.4355 26.331 25.0815H22.6855L24.0696 23.1407Z" fill="#D80613"/>
<path d="M18.794 23.1406H22.4367C22.2944 23.3652 22.1265 23.5804 21.9722 23.797L21.0553 25.0814L17.4102 25.0815C17.8522 24.4239 18.3289 23.7813 18.794 23.1406Z" fill="#D80613"/>
<path d="M31.6322 19.2904C31.8968 19.2455 32.5239 19.2807 32.8251 19.281L35.4906 19.2803C35.4903 19.2947 35.491 19.297 35.4857 19.3128C35.4542 19.4073 33.3335 22.3632 33.116 22.6455C33.0988 22.6679 33.0808 22.6798 33.0573 22.6941C32.8529 22.734 32.1961 22.7003 31.9416 22.7001L29.1865 22.7007C29.2248 22.6754 29.2511 22.6447 29.2786 22.6081C29.8447 21.8528 30.38 21.067 30.9287 20.2978C31.0505 20.1273 31.5819 19.4398 31.6322 19.2904Z" fill="#D80613"/>
<path d="M28.8704 23.152C29.0898 23.1067 29.3684 23.1392 29.5932 23.1394L31.1765 23.1408L37.1601 23.1404L37.1576 23.1724C37.0293 23.3802 36.2489 24.4963 36.1273 24.5985C36.1269 24.6026 36.1269 24.6068 36.1261 24.6109C36.1076 24.6949 35.8536 25.0222 35.7815 25.0803L31.708 25.0803L30.4833 25.0813C30.048 25.0815 29.6084 25.0975 29.1814 24.9959C28.894 24.9275 28.5757 24.7873 28.4162 24.5162C28.1418 24.0502 28.5423 23.6678 28.784 23.3123C28.8098 23.2742 28.8598 23.2157 28.8677 23.1704C28.8689 23.1643 28.8696 23.1581 28.8704 23.152Z" fill="#D80613"/>
<path d="M10.3875 21.5029L12.5428 21.5021C12.8864 21.502 13.2572 21.4733 13.5981 21.5095C13.6781 21.518 13.772 21.5345 13.8343 21.5893C13.883 21.8679 13.0035 22.6985 12.9967 22.9876C12.9956 23.0341 13.0094 23.0529 13.0378 23.0864C13.1263 23.1247 13.233 23.132 13.3281 23.1374C13.8109 23.1649 14.3069 23.1423 14.7909 23.1423L17.5992 23.1414C17.5208 23.2739 17.4102 23.4013 17.3106 23.5175C16.8413 24.0656 16.2626 24.5063 15.6028 24.7773C15.2616 24.9312 14.8714 25.0166 14.502 25.0552C14.1655 25.0904 13.8266 25.0822 13.4889 25.0819L12.1778 25.0814L7.83301 25.0814C8.12483 24.6933 8.4 24.2884 8.68225 23.8926L10.3875 21.5029Z" fill="#D80613"/>
<path d="M9.62003 19.2801L14.8125 19.2799L16.3229 19.2795C16.6658 19.2796 17.0171 19.2621 17.3575 19.3091C17.7084 19.3575 18.0536 19.471 18.341 19.6897C18.6514 19.9259 18.8808 20.275 18.9381 20.6725C19.0182 21.2281 18.7331 21.5618 18.4332 21.9791L17.9178 22.7015H16.871C16.2786 22.7021 15.6355 22.7325 15.0485 22.6988C14.9598 22.6937 14.7794 22.6746 14.7213 22.5986C14.5996 22.4394 15.5403 21.4752 15.5486 21.2038C15.5501 21.156 15.5358 21.1377 15.5074 21.1022C15.446 21.0703 15.3862 21.0677 15.3185 21.0644C15.0394 21.0507 14.7564 21.0598 14.4768 21.0598L12.963 21.0598L8.34717 21.0604C8.78436 20.4788 9.19518 19.8719 9.62003 19.2801Z" fill="#D80613"/>
<path d="M21.5452 19.2803L25.1927 19.2803L23.7973 21.2397H25.4213C25.9037 20.601 26.355 19.9316 26.8221 19.2803H30.4412L30.4391 19.3105C30.3151 19.5179 29.5201 20.6511 29.3965 20.7544C29.3873 20.8497 28.1858 22.4781 28.0266 22.7007H19.104C19.3895 22.3247 19.6561 21.9287 19.9307 21.5438L21.5452 19.2803Z" fill="#D80613"/>
</g>
<defs>
<clipPath id="clip0_653_877">
<rect width="41" height="27" fill="white" transform="translate(2 9)"/>
</clipPath>
</defs>
</svg>
