<svg width="45" height="45" viewBox="0 0 45 45" fill="none" xmlns="http://www.w3.org/2000/svg">
<rect width="45" height="45" rx="6" fill="#4E148C"/>
<path d="M38.5347 25.8913C38.8444 25.8545 39.1655 25.9244 39.4144 26.1062C39.6441 26.2737 39.7905 26.5201 39.826 26.7925C39.8619 27.0674 39.7854 27.3506 39.6039 27.5688C39.4145 27.7962 39.1359 27.927 38.8355 27.9604C38.5729 27.9972 38.2819 27.928 38.0611 27.791C37.8215 27.6424 37.6525 27.4094 37.5946 27.1432C37.5362 26.8741 37.5875 26.5839 37.7476 26.3538C37.9346 26.0851 38.2098 25.9538 38.5347 25.8913ZM38.5509 26.0349C38.2814 26.0891 38.0692 26.1847 37.9142 26.4094C37.7697 26.619 37.7277 26.8899 37.7825 27.1331C37.8335 27.3598 37.9699 27.5617 38.1761 27.6882C38.3278 27.7812 38.5655 27.8522 38.7465 27.8127C38.7523 27.8114 38.7581 27.81 38.7639 27.8085C39.0097 27.7793 39.2352 27.6722 39.3895 27.4854C39.5493 27.2916 39.6065 27.0393 39.5749 26.7975C39.5448 26.5667 39.4271 26.3493 39.2317 26.206C39.0309 26.0587 38.799 26.0192 38.5509 26.0349Z" fill="#FF6600"/>
<path d="M38.2451 26.2779C38.3866 26.2479 38.9088 26.253 39.0328 26.3271C39.1023 26.3687 39.1464 26.4448 39.1641 26.5193C39.1864 26.6126 39.1796 26.7219 39.1228 26.8034C39.0858 26.8564 39.0366 26.8779 38.973 26.8904C38.9907 26.9423 39.0471 26.9416 39.0831 26.9777C39.1295 27.0244 39.1761 27.3755 39.1958 27.4584C39.2034 27.4904 39.2234 27.52 39.2242 27.5526C39.1569 27.5514 39.0891 27.5593 39.0219 27.555C38.9654 27.5514 38.9526 27.5382 38.917 27.4995C38.918 27.4957 38.9199 27.4889 38.9203 27.4846C38.9271 27.4048 38.8604 27.0907 38.8033 27.0363C38.7227 26.9593 38.5404 26.9834 38.4336 26.9846C38.4384 26.993 38.4428 27.0018 38.4451 27.0112C38.4631 27.0808 38.4638 27.4706 38.4293 27.5211H38.2427C38.2487 27.5125 38.2539 27.5035 38.257 27.4935C38.2771 27.4296 38.2715 26.4509 38.2613 26.3278C38.2598 26.3089 38.2548 26.2946 38.2451 26.2779ZM38.4328 26.4546C38.4617 26.5102 38.4695 26.722 38.4437 26.7824C38.4404 26.7902 38.4363 26.7974 38.4315 26.8044C38.5372 26.8055 38.7987 26.8333 38.8766 26.7618C38.8822 26.7566 38.881 26.7575 38.8846 26.7507C38.921 26.7277 38.9425 26.7053 38.9511 26.6634C38.9598 26.62 38.9518 26.5698 38.9248 26.5333C38.8859 26.4806 38.8181 26.4608 38.7542 26.4513C38.6603 26.4373 38.527 26.4398 38.4328 26.4546Z" fill="#FF6600"/>
<path d="M28.4059 22.1579C28.4991 22.1409 28.6071 22.1497 28.7023 22.1499L29.2265 22.151L31.1732 22.1506C31.1749 22.1515 31.1767 22.1523 31.1784 22.1532C31.2378 22.1885 32.4795 23.4831 32.492 23.5228C32.4951 23.5211 32.4985 23.5195 32.5016 23.5177C32.5442 23.4932 33.6602 22.2837 33.7359 22.1809C33.7425 22.1719 33.7458 22.1613 33.7482 22.1506H36.4228C36.4227 22.1524 36.4228 22.1542 36.4225 22.156C36.4137 22.1944 35.8966 22.733 35.8207 22.8146L34.3724 24.3704C34.263 24.4877 33.9259 24.8815 33.8141 24.9555C33.8952 24.9974 34.4575 25.6318 34.5586 25.7403L36.4412 27.7605L36.4381 27.7904H33.6543C33.6542 27.7886 33.6543 27.7867 33.6539 27.785C33.6459 27.7487 32.4178 26.4476 32.3637 26.418C32.363 26.4215 32.3625 26.4251 32.3616 26.4286C32.3482 26.4746 31.1612 27.7592 31.1067 27.7904H28.397C28.3998 27.7889 28.4026 27.7875 28.4052 27.786C28.5035 27.7314 29.2773 26.8782 29.4296 26.7166L30.4866 25.594C30.6664 25.403 30.8541 25.2154 31.027 25.0189C31.037 25.0075 31.0401 24.9993 31.0441 24.9853C31.0437 24.9799 31.0441 24.9785 31.0415 24.9728C31.0163 24.9151 30.4279 24.307 30.3373 24.2097L29.1003 22.8823C28.8873 22.6539 28.6791 22.4192 28.4597 22.1966C28.4434 22.18 28.4268 22.1685 28.4059 22.1579Z" fill="#FF6600"/>
<path d="M23.2145 18.9307C23.8154 18.913 24.4208 18.9274 25.0221 18.9275L28.3963 18.9277C28.4097 18.9479 28.4144 18.9647 28.4155 18.9885C28.4364 19.404 28.4175 19.8295 28.4173 20.246C28.4171 20.39 28.4362 20.7335 28.4134 20.8543C28.4106 20.8695 28.4035 20.8837 28.395 20.8968H25.4138C25.4398 20.96 25.4466 22.0753 25.4224 22.1305C25.4192 22.1378 25.4154 22.1442 25.4108 22.1507H28.3954C28.4091 22.1715 28.4142 22.1889 28.4155 22.2134C28.4365 22.6164 28.4175 23.0446 28.4173 23.4501C28.4173 23.5734 28.4366 23.9374 28.4112 24.0317C28.4084 24.0422 28.4035 24.0519 28.3979 24.0612H25.4088C25.4211 24.0798 25.4271 24.096 25.4286 24.1181C25.4371 24.243 25.4307 24.3716 25.4307 24.497V25.2164C25.4307 25.3547 25.4498 25.6316 25.4268 25.7469C25.4238 25.7623 25.4167 25.7764 25.408 25.7895H28.4008C28.4316 25.8669 28.4284 27.7245 28.4022 27.778C28.4 27.7823 28.3976 27.7864 28.3951 27.7905L24.8789 27.7908L23.7873 27.7909C23.6164 27.7908 23.4319 27.8046 23.2626 27.7881C23.2414 27.7861 23.2274 27.7768 23.2109 27.7645C23.2165 27.7558 23.222 27.7467 23.2254 27.7368C23.2501 27.6648 23.2318 26.4893 23.2318 26.3091L23.232 21.3658L23.2319 19.7684C23.2319 19.5075 23.2481 19.2367 23.23 18.9771C23.2287 18.9599 23.2229 18.9457 23.2145 18.9307Z" fill="#FF6600"/>
<path d="M4.9209 18.9274H10.4261V20.8966H7.40516L7.40495 22.12H10.173L10.1728 23.2841C10.4527 22.8524 10.8063 22.4982 11.2692 22.2405C12.1051 21.7751 13.2077 21.6795 14.1398 21.909C14.9318 22.104 15.5872 22.5689 16.001 23.2393C16.0648 23.3427 16.3516 23.8628 16.3218 23.9712C16.3797 23.9057 16.4669 23.6272 16.5158 23.5246C16.6033 23.3408 16.7074 23.1663 16.8316 23.0024C17.2915 22.3958 17.9608 21.9795 18.7418 21.8596C19.3946 21.7594 20.1211 21.8404 20.6664 22.2163C20.7522 22.2755 21.0094 22.4653 21.0267 22.5679C21.03 22.5623 21.033 22.5568 21.0359 22.551L21.0397 22.5432C21.0448 22.5331 21.0498 22.5229 21.052 22.5118C21.0703 22.4189 21.0565 22.299 21.0565 22.2034L21.0568 21.4817C21.057 20.6581 21.0747 19.8305 21.056 19.0072C21.0553 18.9769 21.0534 18.9539 21.036 18.9274L22.4709 18.9277C22.7171 18.9277 22.9691 18.9152 23.2145 18.9304C23.2228 18.9455 23.2287 18.9597 23.2299 18.9768C23.248 19.2364 23.2318 19.5072 23.2318 19.7682L23.2319 21.3656L23.2317 26.3089C23.2317 26.489 23.25 27.6646 23.2253 27.7366C23.2219 27.7464 23.2164 27.7555 23.2109 27.7643C23.1131 27.7418 22.778 27.7602 22.651 27.7602L21.07 27.7609C21.071 27.7592 21.0718 27.7574 21.0727 27.7557C21.077 27.7479 21.0809 27.7405 21.0839 27.7322C21.1103 27.6608 21.0993 27.2262 21.0632 27.1606C21.0627 27.1641 21.0626 27.1677 21.062 27.1712C21.038 27.3191 20.5734 27.6885 20.4327 27.7745C19.8991 28.1009 19.2693 28.1496 18.6582 28.0246C17.5635 27.8005 16.7242 26.9869 16.3893 25.99C16.3566 25.8927 16.2462 25.4022 16.2295 25.3791C16.2282 25.3773 16.2268 25.3756 16.2254 25.3739H11.936C11.9375 25.4379 11.9422 25.5019 11.9529 25.5652C12.0056 25.8781 12.1956 26.1653 12.4667 26.3496C12.7742 26.5586 13.143 26.6036 13.5105 26.545C13.8474 26.4913 14.0383 26.3155 14.231 26.0601H16.321C16.3223 26.069 16.3233 26.079 16.3217 26.0879C16.3066 26.17 16.2349 26.2818 16.1931 26.3574C15.9248 26.8436 15.5616 27.2726 15.0706 27.5718C14.2824 28.0522 13.215 28.1642 12.3081 27.9758C11.4668 27.8011 10.7109 27.3394 10.2438 26.6457C9.8681 26.0877 9.69083 25.3984 9.74199 24.7381C9.75973 24.5092 9.80741 24.2849 9.85966 24.0611H7.4043L7.40451 27.7609H4.9209V18.9274ZM19.6624 23.4058C19.3263 23.4346 19.049 23.5586 18.8314 23.8071C18.5212 24.1616 18.4116 24.6817 18.4565 25.132C18.4949 25.5168 18.6658 25.9142 18.986 26.1646C19.1964 26.329 19.4757 26.4259 19.7496 26.4154C20.0676 26.4115 20.359 26.3184 20.5847 26.0999C20.898 25.7966 20.9982 25.337 20.9932 24.9259C20.9879 24.4952 20.8774 24.0092 20.5402 23.6979C20.3201 23.4945 20.0273 23.3995 19.7224 23.4041C19.7024 23.4044 19.6823 23.405 19.6624 23.4058ZM13.0021 23.1724C12.6873 23.2083 12.41 23.3439 12.2124 23.5822C12.0906 23.7292 12.0083 23.9059 11.9672 24.0884H13.3088H14.325C14.2472 23.7763 14.086 23.5026 13.7914 23.3312C13.5575 23.1951 13.2737 23.1451 13.0021 23.1724Z" fill="white"/>
</svg>
