<svg width="45" height="45" viewBox="0 0 45 45" fill="none" xmlns="http://www.w3.org/2000/svg">
<rect width="45" height="45" rx="6" fill="#FF6508"/>
<path d="M40.4664 18.7504C40.6843 18.6911 41.3198 18.7344 41.5816 18.7361C41.5821 18.7517 41.5819 18.7674 41.5779 18.7827C41.5538 18.8771 40.9065 19.8659 40.8351 19.9054C40.7166 19.9509 39.8917 19.917 39.71 19.9162C39.7162 19.9123 39.7219 19.9085 39.7278 19.9042C39.8277 19.8288 40.4491 18.8554 40.4664 18.7504Z" fill="white"/>
<path d="M23.3579 18.7506C23.5494 18.693 24.3733 18.7335 24.6366 18.7343C24.6439 18.7454 24.6489 18.7559 24.6536 18.7685C24.6923 18.8726 24.6821 19.7183 24.6403 19.8078C24.5565 19.8491 23.5438 19.8176 23.359 19.8187C23.3629 19.813 23.3665 19.8071 23.3692 19.8007C23.4081 19.7061 23.401 18.8516 23.3579 18.7506Z" fill="white"/>
<path d="M23.357 20.5512C23.6295 20.4993 24.3259 20.5386 24.6397 20.5397C24.6463 20.5488 24.6509 20.5577 24.6546 20.5685C24.6834 20.6524 24.6849 24.6795 24.6649 25.1427C24.6635 25.1734 24.6536 25.2024 24.6408 25.2299C24.545 25.2727 23.5186 25.2433 23.356 25.2443C23.3617 25.2346 23.3663 25.224 23.3701 25.2133C23.4065 25.112 23.3955 21.0998 23.3811 20.665C23.3797 20.6234 23.3737 20.5896 23.357 20.5512Z" fill="white"/>
<path d="M35.3671 18.7505C35.5853 18.6954 36.5383 18.7326 36.8301 18.7325C37.8985 18.7323 38.9772 18.6993 40.0446 18.7381C40.0443 18.741 40.0443 18.7439 40.0443 18.7469C40.0441 18.7575 40.0441 18.7678 40.0426 18.7784C40.0295 18.8723 39.3829 19.8528 39.3065 19.9159L37.9739 19.9155C37.9838 19.9313 37.9922 19.9482 37.9957 19.9668C38.0319 20.1547 38.0024 20.8889 38.0024 21.1353V22.84C38.0021 23.1357 38.0125 23.4357 37.9994 23.7308C37.9977 23.774 37.9907 23.8032 37.9682 23.8402C37.9781 23.8564 37.986 23.8725 37.9917 23.8907C38.0281 24.008 38.0177 25.1291 37.9736 25.2181C37.5563 25.2119 37.1381 25.2176 36.7208 25.2179C36.7307 25.2022 36.7384 25.1866 36.7421 25.168C36.7686 25.0368 36.7481 24.8584 36.7483 24.7216L36.7486 23.6715V21.2765C36.7486 20.8664 36.7585 20.4532 36.7468 20.0433C36.7453 19.9928 36.7411 19.9587 36.7148 19.915L34.6084 19.9153C34.6134 19.9121 34.6183 19.9089 34.623 19.9054C34.7254 19.8301 35.3477 18.865 35.3671 18.7505Z" fill="white"/>
<path d="M20.5663 20.4142C20.9823 20.4017 21.4039 20.4034 21.806 20.5287C22.1829 20.6462 22.5291 20.882 22.7174 21.2465C22.8072 21.4204 22.932 21.7157 22.8748 21.9099L21.6797 21.9106C21.6804 21.8989 21.6809 21.8871 21.681 21.8754C21.6822 21.7434 21.6342 21.6082 21.5431 21.5146C21.3627 21.3293 21.0668 21.276 20.822 21.2785C20.6299 21.2805 20.3921 21.3083 20.2509 21.4584C20.1836 21.53 20.1491 21.6236 20.1518 21.7231C20.1562 21.8814 20.2744 21.9954 20.4 22.069C20.807 22.3078 21.6001 22.375 22.0845 22.5435C22.306 22.6206 22.524 22.7334 22.693 22.9017C22.9206 23.1283 23.0258 23.4096 23.0309 23.733C23.0371 24.1219 22.9009 24.5077 22.636 24.7877C22.1788 25.2708 21.5044 25.3404 20.8853 25.3481C20.589 25.343 20.2948 25.3176 20.008 25.2365C19.5014 25.0933 18.9957 24.7375 18.8518 24.1911C18.8126 24.042 18.8115 23.8362 18.7371 23.7044C18.7362 23.7029 18.7353 23.7013 18.7344 23.6997C19.1362 23.6897 19.5402 23.6986 19.9423 23.6984C20.05 23.8207 19.9804 24.0428 20.2411 24.2631C20.4485 24.4383 20.7769 24.513 21.0415 24.4844C21.2663 24.4602 21.5143 24.3743 21.6604 24.1857C21.7314 24.0939 21.7588 23.9782 21.7447 23.8624C21.7284 23.7281 21.6525 23.623 21.5445 23.5495C21.4089 23.4573 21.2403 23.4115 21.0855 23.3658C20.5054 23.1943 19.7579 23.1428 19.2737 22.754C19.0557 22.579 18.9171 22.3386 18.8848 22.0551C18.8434 21.6911 18.9301 21.3094 19.1522 21.0207C19.4976 20.5719 20.049 20.4761 20.5663 20.4142Z" fill="white"/>
<path d="M27.4833 18.7503C27.7006 18.693 28.0083 18.7312 28.2369 18.7313L29.7404 18.7333C29.7619 18.7688 29.7689 18.7981 29.7711 18.8395C29.8066 19.4924 29.7706 20.2257 29.7716 20.8894L29.7736 22.2682C29.7741 22.7079 29.7974 23.1532 29.7044 23.5853C29.6243 23.9562 29.4545 24.3057 29.2068 24.5884C28.7905 25.063 28.1895 25.3128 27.5754 25.3452C26.9301 25.3793 26.2664 25.2406 25.7793 24.7773C25.6351 24.6402 25.5258 24.4651 25.383 24.3328C25.3876 24.2754 25.2828 24.1143 25.2534 24.0556C25.2142 23.9772 25.1661 23.8958 25.1407 23.8115C25.0933 23.6545 25.0852 23.4125 25.0029 23.2776C25.4031 23.2219 25.8035 23.1138 26.2009 23.0349C26.2312 23.0962 26.2416 23.179 26.2595 23.246C26.2984 23.3919 26.3565 23.5387 26.4333 23.6677C26.5786 23.9122 26.7946 24.0866 27.0675 24.1528C27.3742 24.2272 27.7176 24.1903 27.9875 24.0171C28.2419 23.8538 28.4085 23.5906 28.4749 23.2927C28.5376 23.0117 28.5188 22.7148 28.5191 22.4284L28.5198 21.4165C28.5198 20.9604 28.5515 20.4531 28.5153 20.0019C28.5126 19.9689 28.5022 19.943 28.4851 19.915L26.7345 19.9152C26.8225 19.8504 27.4673 18.845 27.4833 18.7503Z" fill="white"/>
<path d="M11.0134 20.4149C11.2318 20.402 11.4569 20.3978 11.6738 20.4302C12.2153 20.5113 12.6983 20.8057 13.0244 21.2576C13.4014 21.7798 13.5991 22.561 13.5065 23.2049L10.2241 23.2038C10.2343 23.3737 10.2526 23.5387 10.3034 23.7019C10.3781 23.9418 10.5272 24.1388 10.747 24.2541C11.026 24.4006 11.4038 24.4196 11.6998 24.3193C11.9835 24.2233 12.1819 24.046 12.3145 23.7739L13.1654 23.7727L13.4362 23.7737C13.3487 24.0647 13.2208 24.3445 13.0414 24.5878C12.7321 25.0071 12.2496 25.2474 11.7494 25.3181C11.0816 25.4126 10.3665 25.3201 9.81791 24.8916C9.33012 24.5105 9.05616 23.9207 8.97598 23.305C8.88506 22.6071 9.02214 21.8607 9.44395 21.2951C9.83333 20.773 10.3889 20.5005 11.0134 20.4149ZM11.0203 21.4059C10.7484 21.4744 10.5238 21.6075 10.3758 21.8594C10.2851 22.014 10.2375 22.1976 10.231 22.3773L11.4835 22.3768L12.2453 22.3772C12.1701 22.057 12.0757 21.7063 11.7851 21.5218C11.5622 21.3803 11.2736 21.379 11.0203 21.4059Z" fill="white"/>
<path d="M4.29395 18.7362C4.71031 18.7184 5.13382 18.7351 5.55095 18.7353L5.55388 21.2119C5.62188 21.1013 5.68937 20.9892 5.77828 20.8949C6.08931 20.5647 6.51053 20.4108 6.95158 20.4052C7.38167 20.3998 7.83789 20.5003 8.15413 20.8203C8.33324 21.0015 8.4459 21.2581 8.50377 21.5068C8.63713 22.0795 8.59927 22.7109 8.59902 23.2969L8.60071 25.2453C8.17491 25.2341 7.7474 25.2424 7.3214 25.2428L7.32063 23.5467C7.32224 23.0505 7.42283 22.0057 7.06474 21.6299C6.91895 21.4769 6.71054 21.4408 6.51003 21.4398C6.2684 21.4387 6.02899 21.498 5.85415 21.6793C5.72024 21.8182 5.65015 22.0009 5.61117 22.1893C5.51859 22.6369 5.55244 23.1199 5.55321 23.575L5.55241 25.244C5.1338 25.2361 4.71415 25.2426 4.29543 25.2427L4.29395 18.7362Z" fill="white"/>
<path d="M30.1995 18.7502C30.4353 18.6929 31.3866 18.734 31.6896 18.7341C32.7748 18.7346 33.8674 18.705 34.9519 18.7374C34.9531 18.7479 34.9539 18.7565 34.9521 18.767C34.9365 18.8567 34.2956 19.8475 34.2073 19.9161L31.4511 19.9151C31.4528 19.9179 31.4545 19.9206 31.4563 19.9235C31.5116 20.014 31.4947 21.3046 31.4674 21.4323L34.402 21.4327C34.402 21.4352 34.402 21.4378 34.4017 21.4403C34.3933 21.5318 33.7506 22.5221 33.6621 22.5944L31.8832 22.593L31.4488 22.5921C31.4625 22.6145 31.4734 22.6398 31.4786 22.6659C31.5078 22.8167 31.4994 23.7717 31.4798 23.9482C31.4763 23.9782 31.4644 24.0057 31.4486 24.0309L33.7177 24.0299C34.1268 24.0296 34.5453 24.0098 34.9526 24.037C34.9529 24.047 34.9526 24.0569 34.9514 24.0668C34.944 24.1294 34.2792 25.1593 34.2061 25.2176L30.1978 25.2178C30.2074 25.2032 30.2154 25.1881 30.2203 25.1712C30.2627 25.0261 30.2305 23.8766 30.2305 23.6002C30.231 22.0343 30.2573 20.4628 30.2292 18.8976C30.2283 18.8417 30.227 18.7998 30.1995 18.7502Z" fill="white"/>
<path d="M16.244 20.4142C16.763 20.3846 17.2333 20.4583 17.6623 20.7794C18.1589 21.1511 18.4124 21.7462 18.5052 22.3555C18.618 23.0958 18.5203 23.9581 18.0796 24.5757C17.7949 24.9747 17.3742 25.2519 16.8964 25.3274C16.4303 25.401 15.8521 25.3305 15.4814 25.0094C15.3561 24.9009 15.2544 24.7398 15.1271 24.6446L15.1232 24.6417C15.1307 24.6597 15.1366 24.6776 15.1407 24.6967C15.1701 24.8353 15.1752 25.64 15.115 25.7388C15.1196 25.746 15.1238 25.7529 15.1276 25.7606C15.1766 25.861 15.1652 26.7598 15.1253 26.8786C14.7214 26.8437 14.2971 26.8709 13.8917 26.8743L13.8892 20.5398C14.2792 20.5356 14.6696 20.5396 15.0597 20.5396C15.065 20.5482 15.0697 20.5564 15.074 20.5655C15.1257 20.6736 15.1089 21.0206 15.0699 21.136C15.1057 21.1055 15.1284 21.074 15.1553 21.0359C15.4343 20.6408 15.7903 20.4882 16.244 20.4142ZM15.9194 21.4124C15.5873 21.5553 15.3858 21.7136 15.245 22.0686C15.0603 22.5345 15.0564 23.2408 15.2492 23.7041C15.3599 23.9703 15.5625 24.1948 15.8266 24.3028C16.0088 24.3774 16.2189 24.3979 16.4104 24.3527C16.6646 24.307 16.8684 24.1693 17.0167 23.9517C17.2932 23.5462 17.3218 22.9199 17.2387 22.4449C17.1796 22.1069 17.0284 21.765 16.7469 21.5643C16.5018 21.3896 16.2071 21.3665 15.9194 21.4124Z" fill="white"/>
</svg>
