<svg width="146" height="146" viewBox="0 0 146 146" fill="none" xmlns="http://www.w3.org/2000/svg">
<rect y="0.619141" width="145.279" height="145.279" rx="6" fill="#EE6E04"/>
<path d="M114.127 54.075C120.042 53.7326 126.831 54.4572 131.474 58.4645C131.535 59.7251 131.963 62.0452 131.12 63.0288C130.182 63.055 128.771 61.9433 127.905 61.4955C124.975 59.9795 120.528 59.212 117.352 60.2688C116.092 60.6878 114.891 61.5103 114.313 62.7405C113.368 64.7521 113.312 84.3904 114.066 86.2531C114.286 86.7967 114.479 86.9709 114.997 87.2097C115.589 87.1888 116.047 87.2071 116.541 86.8289C117.334 85.6153 116.955 72.7334 116.749 70.5492C120.665 70.6729 124.616 70.5632 128.536 70.5492C130.338 70.5423 132.294 70.3698 134.069 70.6721C134.464 71.4309 134.358 72.3806 134.349 73.2161C134.21 80.0952 134.21 87.0485 134.36 93.9277C128.891 93.2046 121.931 93.7186 116.265 93.743C113.874 93.7526 111.272 93.9616 108.928 93.3901C106.933 92.904 105.081 91.8219 103.478 90.5595C99.6768 87.5669 97.3289 83.3162 96.7626 78.5201C96.0325 72.3466 96.5953 65.0431 100.623 60.0065C104.115 55.6401 108.826 54.6818 114.127 54.075Z" fill="#144093"/>
<path d="M92.3849 55.4135C92.5269 55.4021 92.668 55.5006 92.7978 55.5587C93.2247 57.6383 92.8039 63.7116 92.7969 66.2033C92.7691 75.4365 92.6898 84.6976 92.891 93.9283C87.9756 93.3254 82.8676 93.9012 77.9147 93.6904C74.7469 91.5768 68.6954 85.3624 65.8596 82.429L65.9397 93.9222C63.5168 93.6451 60.9633 93.6625 58.5308 93.7976C58.3827 93.7505 58.2128 93.5954 58.0821 93.5048C57.6936 92.1771 58.0229 86.2414 58.022 84.4964L58.0421 55.4868C61.8432 55.6532 65.6618 55.4397 69.4656 55.51C70.5389 55.5299 71.8876 55.5641 72.8625 56.0361C75.0484 57.0938 83.704 65.7302 85.916 68.0276C85.1589 64.0174 85.6024 59.6133 85.4673 55.5225C87.7743 55.5086 90.0787 55.4735 92.3849 55.4135Z" fill="#144093"/>
<path d="M53.3334 55.4367L53.6174 55.4211C53.9764 55.834 54.0243 55.9795 54.074 56.5241C54.3144 59.1952 54.0095 62.1861 54.0043 64.8904L53.9868 85.007C53.986 87.8969 53.7533 91.0298 54.175 93.8813C48.5826 93.4718 42.1761 93.3612 36.6031 93.9257C36.4834 89.3161 36.3417 84.4346 36.7729 79.8467C33.3455 83.5068 29.5485 86.8505 26.2152 90.5889C23.7053 88.1634 20.777 85.8024 17.9893 83.7019L17.7627 83.8509L17.7563 84.6489C17.7825 87.7374 17.7745 90.8329 17.8927 93.9196C15.5875 93.728 13.2983 93.6644 11.003 93.9998L11 55.3677C15.7601 55.8288 20.6356 55.1106 25.3692 55.7713C27.9858 57.5155 30.5119 60.3217 32.5002 62.7612C34.5645 60.2991 37.6032 57.2672 40.3413 55.5789C44.6414 55.3158 49.0165 55.5864 53.3334 55.4367Z" fill="#144093"/>
</svg>
