<svg width="146" height="146" viewBox="0 0 146 146" fill="none" xmlns="http://www.w3.org/2000/svg">
<rect x="0.446289" y="0.240234" width="145.279" height="145.279" rx="6" fill="#FFD30C"/>
<g clip-path="url(#clip0_686_1385)">
<path d="M84.151 83.0068C85.2418 84.1939 85.4477 85.7352 85.3789 87.2906C85.2414 90.4006 84.4002 93.4685 84.2189 96.5673C82.8931 96.5277 78.9231 96.7922 77.9372 96.3677L77.6147 96.0206C79.2264 95.5881 81.7189 95.8277 83.4439 95.8431C83.9031 92.0564 85.2193 86.586 84.151 83.0068Z" fill="#282929"/>
<path d="M106.895 78.8545C107.201 78.9682 107.391 79.0503 107.594 79.3141C107.654 79.4878 107.675 79.6316 107.659 79.8149C107.529 81.3482 105.878 94.3041 105.577 94.9174C105.55 94.9712 105.518 95.0195 105.483 95.067C105.183 95.6699 103.389 96.2937 102.732 96.5128C100.234 97.3445 97.115 97.4328 94.7163 96.2316C94.3238 96.0349 93.9392 95.822 93.5938 95.5491C95.0812 96.1887 96.8038 96.4782 98.4192 96.4303C99.9488 96.3853 103.718 95.5528 104.722 94.3291C104.901 94.1103 104.963 93.6449 105.007 93.3662C105.44 90.6149 105.696 87.8216 106.078 85.0607C106.266 83.7012 107.007 79.9678 106.895 78.8545Z" fill="#282929"/>
<path d="M108.666 66.2578C108.965 66.3757 109.142 66.451 109.327 66.7223C109.475 67.1298 108.714 73.1023 108.497 73.6306C108.468 73.7006 108.429 73.7523 108.382 73.811C104.826 73.9264 100.764 73.0631 98.0637 75.9564C96.1182 78.041 95.277 81.1685 95.3795 83.9719C95.4282 85.3106 95.7753 86.5214 96.3553 87.7223C96.3366 87.7039 96.3178 87.6856 96.2991 87.6673C95.067 86.4468 94.597 84.5819 94.5857 82.9019C94.567 80.1239 95.4437 77.041 97.4495 75.0352C100.085 72.4002 104.224 73.091 107.637 73.0881C107.857 72.7552 108.707 66.8477 108.666 66.2578Z" fill="#282929"/>
<path d="M47.1219 66.5276C47.4566 66.5032 47.713 66.4205 48.0023 66.6077C48.0522 66.915 47.9628 66.9604 47.7867 67.2046C46.2524 69.3325 44.531 71.3675 42.9111 73.435C40.9648 75.9192 39.0704 78.4729 37.0656 80.9079C38.9667 84.3929 40.6317 88.0404 42.3845 91.6038C43.192 93.2454 43.9342 95.0963 44.9981 96.5829C43.0414 96.4575 38.187 96.8179 36.7404 96.4413C36.4754 96.3725 36.2659 96.1546 36.0742 95.9696C37.3837 95.5992 42.6298 95.7904 44.2406 95.8654C42.5455 92.5917 40.9499 89.2625 39.3123 85.9596C38.3409 84.0004 37.4212 82.0071 36.2654 80.1479C37.7448 78.3054 46.204 67.1175 47.1219 66.5276Z" fill="#282929"/>
<path d="M64.5364 66.2178L65.0852 66.8401C65.6223 69.3376 65.7418 72.0485 65.9856 74.5951C66.2689 77.5568 66.6381 80.5181 66.956 83.4768L67.7693 91.0851C67.9614 92.7272 68.3031 94.536 68.2889 96.1847C68.3268 96.2456 68.3106 96.341 68.311 96.4127C68.3006 96.4214 68.2906 96.4301 68.2793 96.4381C68.2168 96.4831 68.1614 96.5131 68.0852 96.5314C67.771 96.6056 47.9876 96.6393 47.109 96.5001C46.6672 96.4301 46.6279 96.3272 46.375 95.9776C48.2106 95.6026 51.3739 95.8268 53.341 95.8272L67.6589 95.836C67.3864 94.636 67.3472 93.3072 67.2172 92.0793L66.4952 85.4543C65.806 79.0643 64.9231 72.6314 64.5364 66.2178Z" fill="#282929"/>
<path d="M132.418 99.9477C132.598 99.9169 132.783 99.9119 132.965 99.8994L133.12 100.037C133.107 100.078 133.09 100.135 133.071 100.175C132.701 100.958 129.132 105.115 128.362 105.832C128.168 106.013 127.95 106.132 127.707 106.237C122.769 105.987 117.835 105.512 112.905 105.114C107.087 104.645 101.263 104.226 95.4529 103.668C94.6641 103.67 92.4341 103.749 91.8862 103.207C92.1062 103.032 92.3996 103.04 92.6762 103.014C93.8629 102.904 95.0575 102.924 96.2454 102.843C98.6037 102.682 100.963 102.451 103.321 102.269L124.202 100.575L130.055 100.132C130.827 100.073 131.667 100.112 132.418 99.9477Z" fill="#D62E13"/>
<path d="M129.167 39.4274L129.785 39.3916C129.789 39.4044 129.793 39.4171 129.796 39.4299C129.956 40.0456 129.896 44.6828 129.796 45.5302C129.773 45.7234 129.697 45.9001 129.601 46.0673C130.762 46.0253 131.924 45.9681 133.085 45.9916C133.092 46.0043 133.099 46.0167 133.104 46.0297C133.114 46.0512 133.123 46.0732 133.132 46.0949C133.152 46.1413 133.172 46.1881 133.189 46.2355C133.404 46.816 133.407 49.6696 133.145 50.2239C132.029 50.2392 130.915 50.2182 129.799 50.1943C130.422 51.1053 129.976 54.9907 130.031 56.2882C130.064 57.0647 130.21 57.881 130.819 58.4229C131.508 59.0353 132.232 59.0191 133.09 58.9724C133.136 59.0651 133.179 59.1608 133.209 59.2602C133.384 59.8536 133.474 62.3139 133.167 62.8578C132.305 62.852 131.447 62.828 130.586 62.7896C129.975 62.5445 129.269 62.5248 128.646 62.2504C124.634 60.4827 124.619 56.1742 124.656 52.4024C124.662 51.8039 124.812 50.8052 124.584 50.2594C124.577 50.2412 124.567 50.2235 124.559 50.2056C124.064 50.2367 123.555 50.2184 123.059 50.2212C123.103 50.1484 123.14 50.0739 123.172 49.9944C123.443 49.305 123.384 46.6555 123.073 45.9966C123.594 46.0093 124.109 46.0006 124.629 45.981C124.684 44.924 124.873 40.1612 124.47 39.4909C126.032 39.4682 127.609 39.5205 129.167 39.4274Z" fill="#003898"/>
<path d="M118.303 39.4273L118.95 39.3945C119.106 40.0819 119.071 45.5646 118.757 46.0653C119.932 46.011 121.107 46.0529 122.281 45.9631C122.322 46.0427 122.36 46.1251 122.386 46.2114C122.541 46.7359 122.535 49.8344 122.313 50.2283C121.215 50.2067 120.116 50.2042 119.018 50.1981C119.025 50.216 119.032 50.2339 119.039 50.2517C119.545 51.446 119.063 55.0265 119.213 56.5708C119.284 57.3089 119.489 58.0824 120.096 58.5643C120.749 59.0833 121.502 59.0491 122.279 58.9483C122.317 59.0286 122.351 59.1099 122.378 59.1947C122.551 59.7367 122.615 62.3959 122.372 62.8419C121.497 62.8436 120.627 62.831 119.753 62.7941C118.912 62.5579 118.121 62.4479 117.338 62.0238C113.73 60.0707 113.796 56.1309 113.807 52.5313C113.809 51.8709 113.948 50.9076 113.748 50.2879C113.742 50.2684 113.734 50.2494 113.727 50.2301L112.196 50.2287C112.259 50.1321 112.315 50.0299 112.346 49.9183C112.517 49.3002 112.448 46.4889 112.157 46.0122L113.748 46.033C113.793 45.9672 113.816 45.9069 113.83 45.8289C113.934 45.2668 113.859 40.6259 113.775 39.9372C113.753 39.7621 113.698 39.6324 113.601 39.4864C115.163 39.4766 116.745 39.5245 118.303 39.4273Z" fill="#003898"/>
<path d="M44.6118 25.2842C45.5161 25.5086 46.4261 26.2549 47.4561 26.4935C49.92 27.0643 52.4676 27.2965 54.9493 27.7938C61.196 29.0459 70.3606 31.7679 75.366 35.8073C77.566 37.5824 79.3581 39.8186 79.6535 42.7168C80.0289 46.4049 77.806 49.5554 75.5885 52.2672C75.921 48.548 75.8714 44.8132 74.0051 41.4508C73.1422 39.8957 71.9918 38.6018 70.5718 37.5334C69.0843 36.4139 67.3806 35.624 65.7047 34.8324C60.2897 32.2742 54.6931 30.4021 48.9409 28.7637C50.7314 30.6362 53.1735 31.7304 55.481 32.8213C57.4422 33.7304 59.0481 34.5297 60.3951 36.2776C58.611 36.7049 56.7531 36.7706 54.9414 36.4474C54.2976 36.3325 53.4235 35.9962 52.7864 36.0702C53.116 36.726 57.3093 39.5935 58.1443 40.1419C58.7581 40.5449 59.6406 40.8768 60.1006 41.4395L60.0806 41.621C60.0668 41.6287 60.0535 41.6369 60.0393 41.644C59.7264 41.8031 59.2718 41.8009 58.9235 41.8361C56.8581 42.0447 55.0289 41.7932 53.0397 41.1913C54.7535 42.8983 57.3685 44.4238 59.7093 45.0487C60.5022 45.2603 61.3364 45.2899 62.1331 45.5062L62.2006 45.6364C61.9447 45.7744 61.6643 45.7635 61.3814 45.7641C60.226 45.7666 59.1326 45.4813 58.031 45.1578C53.8631 43.9336 51.2756 41.7997 48.2766 38.8204C50.435 39.4299 52.6331 39.6491 54.8281 40.0156C55.2197 40.081 55.5435 40.2817 55.9543 40.2095L55.9985 40.0969C55.2876 39.4449 54.1872 39.0769 53.3597 38.5642C52.3139 37.9158 51.3035 37.0701 50.3731 36.2641C49.8134 35.7792 48.1639 34.4631 48.1166 33.7995L48.2814 33.6469C48.9063 33.6874 49.7064 34.0574 50.353 34.1886C52.2756 34.5787 54.3797 34.8885 56.3389 34.9671C54.9501 34.0126 53.4247 33.2669 51.9822 32.3966C50.7956 31.6804 49.6931 30.8447 48.6276 29.9608C47.6626 29.1603 44.7259 26.5101 44.6118 25.2842Z" fill="#D62E13"/>
<path d="M119.706 106.719C120.678 106.677 121.618 106.85 122.565 106.559C122.556 106.675 122.542 106.794 122.507 106.906C122.253 107.693 117.768 112.851 117.037 113.207C115.513 113.259 113.942 113.042 112.416 112.975L102.117 112.51L73.0558 111.199L63.1175 110.719C61.0941 110.616 59.0741 110.431 57.047 110.448C55.3704 110.344 52.8245 110.617 51.2866 110.173L51.3479 110.06C53.3266 109.383 55.8029 109.702 57.8845 109.608L68.4354 109.09L119.706 106.719Z" fill="#D62E13"/>
<path d="M97.3643 37.7132C100.634 37.7478 104.004 37.4138 107.053 38.8359C108.795 39.6482 110.338 41.0305 111 42.87C111.803 45.1005 111.554 47.7913 110.551 49.914C109.212 52.7494 106.731 54.3108 103.868 55.3391C103.556 55.409 103.285 55.4615 103.021 55.6512C102.811 56.3072 102.976 61.9435 103.06 62.9295C101.358 62.7057 98.9785 62.7091 97.2794 62.947C97.4364 60.6207 97.3402 58.24 97.3402 55.9086C97.3398 49.8595 97.1598 43.7531 97.3643 37.7132ZM102.959 41.8373C103.031 44.8263 103.145 47.9724 102.934 50.9521C103.421 50.6994 104.246 50.3568 104.448 49.7999C104.472 49.7322 104.469 49.7312 104.475 49.6703C104.97 49.4202 105.274 48.6478 105.444 48.1355C105.892 46.7816 106.056 44.7601 105.394 43.4535C105.081 42.838 104.519 42.2828 103.854 42.0682C103.563 41.9741 103.258 41.9073 102.959 41.8373Z" fill="#003898"/>
<path d="M12.9214 116.954C14.202 116.787 15.4985 116.579 16.7859 116.486C19.2057 116.311 21.6637 116.328 24.0902 116.244L36.5002 115.823L73.9752 114.566L98.9348 113.754L107.612 113.433C108.745 113.398 110.018 113.233 111.134 113.336C111.16 113.884 106.966 118.727 106.252 119.524C106.089 119.706 105.886 119.872 105.679 120H102.052C100.633 119.538 97.5877 119.68 96.004 119.638L84.139 119.367L34.5212 117.601C30.2189 117.444 25.9082 117.273 21.6042 117.19C18.7394 117.134 15.7682 117.247 12.9214 116.954Z" fill="#D62E13"/>
<path d="M71.7236 65.9054C73.3703 65.7563 75.0736 65.8311 76.7274 65.826C78.7032 65.8199 80.8753 65.6398 82.817 66.0221C84.3678 66.3274 85.8482 67.1058 86.7507 68.4429C88.0203 69.9033 88.392 71.9737 88.2578 73.8616C88.0774 76.3991 87.1816 79.0166 85.2086 80.7237C84.4945 81.3416 83.7686 81.4762 82.9441 81.8374C83.3574 82.2179 83.7649 82.5979 84.1507 83.0062C85.2191 86.5854 83.9028 92.0558 83.4436 95.8424C81.7186 95.827 79.2261 95.5874 77.6145 96.0199C77.4828 95.9999 77.3311 95.987 77.2157 95.9174C76.6795 95.5949 78.2203 87.987 77.8966 86.3391C77.842 86.0612 77.7857 85.7674 77.5361 85.5999C75.7457 85.0533 73.5982 85.3474 71.7361 85.3408C70.9795 85.3379 70.3949 85.3441 69.8345 84.7824C69.6841 84.7499 69.5716 84.7224 69.4516 84.6208C69.3303 84.5179 69.3091 84.3899 69.2995 84.2333C69.2495 83.4345 69.5249 82.6129 69.6236 81.8216C69.7745 80.6058 69.8241 79.3454 70.0361 78.142C70.0766 77.9133 70.1174 77.6433 70.2795 77.4666C70.5799 77.1391 76.9716 77.3654 77.852 77.3558C78.5928 77.3479 79.3441 77.2087 79.8753 76.6479C80.6011 75.882 80.4907 74.8879 80.4728 73.9195C78.0391 73.4995 75.4003 73.9866 72.9295 73.8262C72.2374 73.7812 71.8666 73.7541 71.3953 73.2216C71.2128 73.1849 71.0703 73.137 70.9061 73.0483C70.6924 72.5112 71.5995 66.7812 71.7236 65.9054ZM69.8345 84.7824C70.3949 85.3441 70.9795 85.3379 71.7361 85.3408C73.5982 85.3474 75.7457 85.0533 77.5361 85.5999C77.4157 85.4166 77.2916 85.2333 77.1091 85.1062C75.8803 84.2474 71.3641 84.5195 69.8345 84.7824Z" fill="#D62E13"/>
<path d="M69.8345 84.7834C71.3641 84.5205 75.8803 84.2484 77.1091 85.1071C77.2916 85.2342 77.4157 85.4176 77.5361 85.6009C75.7457 85.0542 73.5982 85.3484 71.7361 85.3417C70.9795 85.3388 70.3949 85.3451 69.8345 84.7834Z" fill="url(#paint0_linear_686_1385)"/>
<path d="M71.3955 73.2219C72.7034 73.0586 79.2243 72.7586 80.1176 73.4769C80.2618 73.5927 80.3709 73.7669 80.473 73.9198C78.0393 73.4998 75.4005 73.9869 72.9297 73.8265C72.2376 73.7815 71.8668 73.7544 71.3955 73.2219Z" fill="#282929"/>
<path d="M86.751 68.4434C88.0206 69.9038 88.3923 71.9742 88.2581 73.8621C88.0777 76.3996 87.1819 79.0171 85.2089 80.7242C84.4948 81.3421 83.769 81.4767 82.9444 81.8379L81.4673 81.3638C81.8819 81.2413 82.3019 81.1146 82.7035 80.9542C84.5448 80.2192 85.8335 78.6879 86.6019 76.8992C87.7706 74.1796 87.8415 71.1913 86.751 68.4434Z" fill="#282929"/>
<path d="M42.4212 37.8104L42.6087 37.7988C42.8459 38.0845 43.2432 41.6612 43.4541 42.4349C44.423 45.9877 45.9562 49.2718 48.2939 52.1375C52.3314 57.0869 58.526 59.8289 64.7972 60.4605C69.2168 60.9056 73.5922 60.1968 77.106 57.314C80.8681 54.227 82.8281 49.307 83.306 44.5523C84.5956 46.2553 85.7439 48.2228 86.8181 50.0711C86.2843 51.3369 85.4147 52.5942 84.5981 53.6986C81.1306 58.387 76.0164 61.6972 70.2122 62.5559C61.6368 63.8244 53.1281 60.5058 46.3462 55.4531C42.9769 52.4763 40.381 49.3993 38.5096 45.2899C37.5743 46.0671 36.2417 46.655 35.178 47.2514C33.3845 48.2571 31.5371 49.451 29.6295 50.2195C30.7363 51.1284 31.7279 52.1784 32.8386 53.0917C36.7088 56.2744 40.919 58.8704 45.4748 60.957C47.2676 61.778 49.1037 62.5153 50.9831 63.1147C51.6747 63.3352 54.0622 63.8512 54.4985 64.3319C54.4089 64.3652 54.3139 64.389 54.2172 64.388C53.0968 64.3769 50.468 63.722 49.2468 63.4681C39.3822 61.4175 29.0671 56.9842 22.145 49.4366C24.4789 48.1831 26.758 46.7943 29.0576 45.4755L42.4212 37.8104Z" fill="#003898"/>
<path d="M93.5937 95.5489C91.622 94.3835 89.9899 92.3914 89.0712 90.311C87.1074 85.8635 87.5849 80.4306 89.3108 75.9877C90.7095 72.3877 93.5433 68.5935 97.1628 67.0064C100.061 65.7358 103.212 65.8513 106.301 65.8153C106.841 65.8089 107.92 65.6796 108.399 65.8979C108.6 65.99 108.594 66.0595 108.666 66.2578C108.707 66.8477 107.857 72.7552 107.637 73.0881C104.224 73.091 100.085 72.4002 97.4495 75.0352C95.4437 77.041 94.567 80.1239 94.5858 82.9018C94.597 84.5818 95.067 86.4468 96.2991 87.6673C96.3178 87.6856 96.3366 87.7039 96.3553 87.7223C97.1891 88.7106 98.0437 89.2852 99.3566 89.4289C101.011 89.6102 102.404 89.0568 103.675 88.0177C104.104 87.6673 104.957 86.9173 105.012 86.3773C103.537 86.3935 101.939 86.5281 100.476 86.3556C99.9908 86.2985 99.8253 86.2031 99.5257 85.8223L99.082 85.6548C99.0453 85.5827 98.9599 85.4623 98.9449 85.3877C98.8282 84.8102 99.6574 79.4502 99.7983 78.4602C100.754 78.4023 106.227 78.196 106.754 78.526C106.88 78.6048 106.866 78.7168 106.895 78.8543C107.007 79.9677 106.266 83.701 106.078 85.0606C105.696 87.8214 105.44 90.6148 105.007 93.366C104.963 93.6448 104.901 94.1102 104.722 94.3289C103.717 95.5527 99.9487 96.3852 98.4191 96.4302C96.8037 96.4781 95.0812 96.1885 93.5937 95.5489Z" fill="#D62E13"/>
<path d="M99.5259 85.8222C100.98 85.3122 104.077 85.6493 105.725 85.6259C105.623 85.9684 105.471 86.1313 105.155 86.3026C105.108 86.328 105.06 86.353 105.012 86.3772C103.537 86.3934 101.939 86.528 100.476 86.3555C99.9909 86.2984 99.8255 86.203 99.5259 85.8222Z" fill="#282929"/>
<path d="M57.2983 65.86C57.3808 65.8541 57.4625 65.8484 57.545 65.8465C58.9583 65.8137 62.8413 65.6218 64.0433 65.9117C64.2838 65.9697 64.3583 66.0488 64.5363 66.2183C64.9229 72.6319 65.8058 79.0648 66.495 85.4548L67.2171 92.0798C67.3471 93.3077 67.3863 94.6365 67.6588 95.8365L53.3408 95.8277C51.3738 95.8273 48.2105 95.6031 46.3748 95.9781C46.1937 95.9448 46.0133 95.9077 45.8328 95.871L45.7446 95.6585C46.0945 94.3573 46.6811 93.056 47.1715 91.7985L49.8336 85.0044L51.6996 80.2035C52.0638 79.261 52.3621 78.2469 52.8767 77.3752C53.0058 77.3598 53.1354 77.3456 53.265 77.3356C54.1367 77.2681 58.0471 77.1015 58.52 77.5365C58.5763 77.5881 58.5663 77.821 58.5713 77.906C58.7938 78.1165 58.8125 78.1194 59.1179 78.1498C58.9692 76.4419 58.595 74.6769 58.3467 72.976C58.0013 70.6085 57.7446 68.2094 57.2983 65.86ZM55.6946 88.5527C57.3367 88.6127 59.0054 88.5498 60.65 88.549C59.8771 85.4794 59.9525 82.0615 59.2608 79.0452C58.8558 79.6948 58.6325 80.5152 58.3779 81.2352C57.7183 83.101 56.6 86.999 55.6946 88.5527Z" fill="#D62E13"/>
<path d="M55.6945 88.5529C55.3724 88.5892 55.1686 88.6529 54.8666 88.5267C54.7903 87.8121 58.0299 79.1804 58.5711 77.9062C58.7936 78.1167 58.8124 78.1196 59.1178 78.15C59.1732 78.4479 59.2232 78.7446 59.2607 79.0454C58.8557 79.695 58.6324 80.5154 58.3778 81.2354C57.7182 83.1013 56.5999 86.9992 55.6945 88.5529Z" fill="#282929"/>
<path d="M23.0389 96.0242L22.6506 95.9176C22.4655 95.6472 22.4233 95.4551 22.4342 95.1226C22.4771 93.813 22.8613 92.0517 23.0323 90.6855L24.4211 79.5967C24.5733 78.3688 25.985 66.0425 26.2508 65.7877C26.8285 65.5658 31.6385 65.5353 32.4409 65.6156C32.8669 65.6582 32.9555 65.777 33.2112 66.0916C33.2207 66.105 33.2299 66.1188 33.2397 66.132C33.391 66.3333 33.5807 66.4194 33.799 66.5295C34.3026 67.5276 32.786 72.9317 32.987 74.5842C33.5728 74.0288 34.0732 73.2192 34.5707 72.5759L38.1621 67.9263C38.5918 67.3701 39.0189 66.6659 39.5377 66.198C39.6725 66.0765 39.8369 65.9675 40.0161 65.9298C41.3103 65.657 45.6364 65.8139 47.1753 65.8655C47.2636 66.1045 47.1865 66.2931 47.1218 66.528C46.2039 67.118 37.7447 78.3059 36.2653 80.1484C37.4211 82.0076 38.3408 84.0009 39.3122 85.9601C40.9498 89.263 42.5454 92.5922 44.2405 95.8659C42.6297 95.7909 37.3836 95.5997 36.0741 95.9701C34.694 94.6342 32.668 88.9163 31.375 86.8442C30.896 90.0284 30.457 93.3426 30.2026 96.5513C29.0216 96.5501 23.7785 96.7963 23.2212 96.2305C23.1565 96.1651 23.0977 96.0951 23.0389 96.0242Z" fill="#D62E13"/>
<path d="M33.211 66.0918C33.2205 66.1053 33.2296 66.119 33.2395 66.1322C33.3907 66.3335 33.5804 66.4196 33.7987 66.5297C34.3024 67.5278 32.7857 72.932 32.9867 74.5845C32.5776 74.9415 32.1945 75.6932 31.8374 76.1449C32.3859 72.8115 32.5458 69.4053 33.211 66.0918Z" fill="#282929"/>
<path d="M29.4158 95.8399C29.7916 92.2562 30.3037 88.6866 30.7214 85.1074C30.9779 85.6666 31.1679 86.2649 31.3747 86.8445C30.8957 90.0287 30.4567 93.3428 30.2023 96.5516C29.0213 96.5503 23.7782 96.7966 23.2209 96.2308C23.1562 96.1653 23.0974 96.0953 23.0386 96.0245C24.8649 95.5816 27.5031 95.8312 29.4158 95.8399Z" fill="#282929"/>
<path d="M114.41 95.6082C114.054 95.129 113.237 94.6615 112.76 94.2315C110.124 91.859 108.889 88.5969 108.713 85.0977C108.443 79.7432 110.218 73.6461 113.859 69.6544C116.155 67.1377 119.157 65.3731 122.616 65.2195C125.471 65.0928 128.001 66.2333 130.081 68.1344C130.487 68.5061 131.349 69.3311 131.372 69.8861C132.03 70.169 132.582 71.464 132.834 72.0986C133.377 73.4602 133.822 75.0898 133.891 76.559H133.974C134.018 77.7332 134.103 79.0402 133.971 80.2044H133.882C133.294 85.7348 131.494 90.9627 127.026 94.5786C124.684 96.474 121.757 97.4044 118.746 97.0865C117.137 96.9169 115.802 96.4127 114.41 95.6082ZM116.914 88.1165C117.419 88.4994 117.581 88.9794 118.229 89.2002C119.379 89.5923 120.712 89.5902 121.812 89.0473C123.664 88.1332 124.817 86.1182 125.449 84.2348C126.314 81.6577 126.937 77.0227 125.656 74.5061C125.363 73.9311 124.923 73.3257 124.289 73.1169C122.931 72.7882 121.597 72.8702 120.378 73.6169C118.346 74.8615 117.319 77.3727 116.8 79.5911C116.443 81.1173 116.163 82.949 116.258 84.5286C116.298 85.2082 116.994 87.8573 116.914 88.1165ZM131.372 69.8861C133.521 72.8311 133.374 78.1777 132.832 81.6815C132.092 86.4644 129.741 91.3048 125.755 94.1952C123.249 96.0123 120.212 96.7756 117.154 96.2731C116.259 96.1261 115.219 95.7123 114.41 95.6082C115.802 96.4127 117.137 96.9169 118.746 97.0865C121.757 97.4044 124.684 96.474 127.026 94.5786C131.494 90.9627 133.294 85.7348 133.882 80.2044H133.971C134.103 79.0402 134.018 77.7332 133.974 76.559H133.891C133.822 75.0898 133.377 73.4602 132.834 72.0986C132.582 71.464 132.03 70.169 131.372 69.8861Z" fill="#D62E13"/>
<path d="M116.915 88.1162C116.469 87.4375 116.031 86.7071 115.796 85.9254C114.917 83.005 115.809 78.1183 117.254 75.4808C118.015 74.0925 119.156 72.8225 120.721 72.3687C121.616 72.1096 123.054 72.0821 123.899 72.5721C124.146 72.7158 124.224 72.8467 124.29 73.1167C122.931 72.7879 121.597 72.87 120.378 73.6167C118.346 74.8612 117.319 77.3725 116.801 79.5908C116.443 81.1171 116.163 82.9487 116.258 84.5283C116.298 85.2079 116.994 87.8571 116.915 88.1162Z" fill="#282929"/>
<path d="M131.373 69.8857C132.03 70.1687 132.582 71.4637 132.835 72.0982C133.378 73.4599 133.822 75.0895 133.891 76.5587H133.974C134.018 77.7328 134.104 79.0399 133.971 80.2041H133.883C133.294 85.7345 131.495 90.9624 127.026 94.5782C124.684 96.4737 121.757 97.4041 118.746 97.0862C117.138 96.9166 115.802 96.4124 114.411 95.6078C115.219 95.712 116.259 96.1257 117.155 96.2728C120.213 96.7753 123.249 96.012 125.756 94.1949C129.741 91.3045 132.092 86.4641 132.832 81.6812C133.374 78.1774 133.521 72.8307 131.373 69.8857ZM133.891 76.5587C133.794 77.662 133.731 79.1107 133.883 80.2041H133.971C134.104 79.0399 134.018 77.7328 133.974 76.5587H133.891Z" fill="#282929"/>
<path d="M133.891 76.5586H133.974C134.018 77.7328 134.103 79.0398 133.971 80.204H133.883C133.731 79.1107 133.794 77.6619 133.891 76.5586Z" fill="#282929" fill-opacity="0.913725"/>
</g>
<defs>
<linearGradient id="paint0_linear_686_1385" x1="73.3312" y1="85.1118" x2="73.3146" y2="84.6849" gradientUnits="userSpaceOnUse">
<stop stop-color="#29272B" stop-opacity="0.984314"/>
<stop offset="1" stop-color="#222929"/>
</linearGradient>
<clipPath id="clip0_686_1385">
<rect width="125" height="95" fill="white" transform="translate(9 25)"/>
</clipPath>
</defs>
</svg>
