<svg width="146" height="147" viewBox="0 0 146 147" fill="none" xmlns="http://www.w3.org/2000/svg">
<rect x="0.26416" y="0.934082" width="145.279" height="145.279" rx="6" fill="url(#paint0_linear_686_1383)"/>
<path d="M80.7377 65.001C83.3171 66.0971 86.8852 70.56 88.384 72.9437C90.8593 76.8809 92.2408 81.8771 91.1521 86.5007C90.196 90.563 86.9814 94.0705 83.5229 96.2204C72.7187 102.937 55.3306 103.198 43.1909 100.328C40.7485 99.9357 38.3094 99.3212 35.9385 98.6181C36.6747 95.538 37.7675 92.1655 38.9594 89.2268C39.0346 89.042 39.3733 88.2817 39.5251 88.219C40.0118 88.019 41.9304 88.5378 42.5005 88.6454C52.5973 90.5504 63.802 91.7889 73.5101 87.5144C77.5139 85.7516 81.4822 82.9038 83.0772 78.6549C84.3043 75.3848 83.9386 71.5433 82.4901 68.4124C81.9782 67.3059 81.2982 66.2945 80.8118 65.1735L80.7377 65.001Z" fill="white"/>
<path d="M85.4247 46.5285C93.7156 46.176 102.075 47.5352 110.061 49.7914C108.799 53.239 107.712 56.8346 106.733 60.382C104.472 59.9708 102.24 59.3426 99.977 58.9182C93.9642 57.7906 87.8568 57.5975 81.8127 58.5543C75.9265 59.4865 69.8986 61.9894 66.27 67.1458C65.5422 68.3522 65.0081 69.5694 64.6807 70.9583C63.5915 75.5768 65.4297 79.6812 67.6557 83.533C67.0878 83.1027 66.5168 82.6911 65.9873 82.2079C61.4052 78.0275 57.5794 72.8091 57.1539 66.2499C56.8997 62.3331 58.0185 58.7379 60.5209 55.7889C66.527 48.7109 76.9113 47.1193 85.4247 46.5285Z" fill="white"/>
<path d="M89.8771 70.2969C92.4905 71.2489 96.3348 76.6617 97.8438 78.9239C100.881 83.4769 102.92 89.5554 101.817 95.0454C100.744 100.387 97.327 104.669 92.9009 107.651C78.1718 117.577 56.5306 116.124 39.8777 112.819C37.675 112.332 35.4065 111.836 33.2944 111.034C33.7325 109.814 36.4818 101.02 37.0664 100.81C37.7647 100.559 44.9898 102.426 46.4167 102.678C58.5945 104.826 73.7926 104.831 84.7639 98.4347C89.0345 95.9447 92.7124 92.0684 93.964 87.1579C95.6168 80.675 93.019 75.6728 89.8771 70.2969Z" fill="white"/>
<path d="M83.061 33.3333C86.3643 33.1626 89.623 33.2085 92.9201 33.4876C96.2504 33.7693 113.487 35.549 115.351 37.7345C115.462 38.892 112.878 46.0231 112.214 47.3649C111.693 47.5874 111.303 47.5088 110.75 47.4327C108.869 47.1748 106.967 46.6258 105.102 46.2442C102.187 45.6472 99.2087 45.2126 96.2461 44.9103C89.8324 44.256 83.1809 44.3923 76.8298 45.5278C69.0507 46.9183 61.2993 49.9929 56.6481 56.5981C55.6419 58.183 54.8729 59.8346 54.4884 61.6753C53.1891 67.8923 55.817 73.1878 59.151 78.2347C58.7464 77.9537 58.3604 77.6493 57.9811 77.3365C52.1394 72.5223 47.2839 65.5135 46.5986 57.8865C46.1798 53.228 47.6728 48.7662 50.7151 45.1956C58.3988 36.177 71.9271 34.2649 83.061 33.3333Z" fill="white"/>
<path d="M98.8712 75.5918C101.286 76.2987 105.992 82.5785 107.429 84.7046C111.393 90.5702 113.737 97.5978 112.266 104.654C110.934 111.042 106.125 116.441 100.69 119.949C88.0384 128.113 67.6316 129.381 52.8833 128.11C46.9137 127.595 40.9341 126.507 35.0697 125.322C32.7185 124.737 30.3625 124.183 28 123.643C29.8158 120.289 30.4787 116.541 32.1165 113.134C32.6825 113.282 33.2541 113.41 33.8236 113.544C52.3272 117.891 76.8421 120.19 93.7821 109.949C99.0972 106.736 103.233 101.959 104.675 95.9113C106.49 88.304 102.795 81.795 98.8712 75.5918Z" fill="white"/>
<path d="M76.1116 20.171C78.6411 19.9281 81.2716 20.0151 83.8123 20.0154C96.4025 20.0183 105.903 22.0019 118 24.7044C116.975 28.1767 115.891 31.9626 114.366 35.2405C102.321 31.8217 88.7446 29.9714 76.2727 31.5469C66.3439 32.8013 54.2542 35.8537 47.8019 44.1611C45.6683 46.6894 44.2988 49.9113 43.6904 53.1465C42.364 60.2024 46.0347 67.3039 49.8892 72.9427C49.7331 72.8317 49.5781 72.7207 49.4253 72.6054C43.0752 67.8115 37.1163 58.7601 36.1076 50.7846C35.4072 45.2474 36.8937 39.5857 40.3566 35.2006C49.0165 24.2342 63.0317 21.7092 76.1116 20.171Z" fill="white"/>
<defs>
<linearGradient id="paint0_linear_686_1383" x1="72.9038" y1="0.934082" x2="72.9038" y2="146.213" gradientUnits="userSpaceOnUse">
<stop stop-color="#00AF5D"/>
<stop offset="1" stop-color="#0070E4"/>
</linearGradient>
</defs>
</svg>
