<svg width="45" height="45" viewBox="0 0 45 45" fill="none" xmlns="http://www.w3.org/2000/svg">
<rect x="0.5" y="0.5" width="44" height="44" rx="5.5" fill="white" stroke="#E8DEDE"/>
<g clip-path="url(#clip0_653_729)">
<path d="M17.9901 20.6258C18.156 20.6101 18.3304 20.6172 18.4974 20.6143C18.5054 20.6279 18.5127 20.644 18.5155 20.6596C18.5305 20.7424 18.4713 21.1999 18.4249 21.2709C18.2825 21.2746 18.1394 21.272 17.9969 21.2722L17.4717 21.2728C17.5472 21.1749 17.5587 20.9573 17.6334 20.8323C17.7076 20.708 17.8595 20.6588 17.9901 20.6258Z" fill="#E53B31"/>
<path d="M15.863 20.6261C16.0318 20.6068 16.2141 20.6171 16.3844 20.6161C16.3933 20.6414 16.3999 20.6686 16.4002 20.6955C16.4013 20.8244 16.3773 21.1763 16.2839 21.2718C16.1528 21.2806 16.0147 21.2727 15.883 21.2727C15.7333 21.2713 15.5757 21.294 15.4277 21.2682C15.3941 21.2419 15.3763 21.229 15.367 21.1843C15.3503 21.1042 15.4303 20.9625 15.4726 20.8966C15.5722 20.7411 15.6844 20.664 15.863 20.6261Z" fill="#E53B31"/>
<path d="M34.1307 20.6261L34.4313 20.6123C34.4412 20.6302 34.4478 20.6488 34.4504 20.6692C34.4684 20.8148 34.376 21.4678 34.2955 21.5746C34.1358 21.5777 33.9683 21.5743 33.8106 21.6001C33.1914 21.7015 33.1761 22.3064 33.1027 22.8196C33.0602 23.1168 33.0123 23.4136 32.9735 23.7113C32.9557 23.8484 32.9534 24.0535 32.8728 24.1668L32.2515 24.1661L31.9277 24.1657C32.0059 24.0605 32.0142 23.8534 32.033 23.7236L32.1638 22.8316C32.2452 22.2858 32.3091 21.756 32.6679 21.3118C33.0335 20.8592 33.5765 20.6822 34.1307 20.6261Z" fill="#0050A4"/>
<path d="M20.3764 20.6263C20.4845 20.6173 20.595 20.6209 20.7035 20.6204C20.7151 20.6431 20.7182 20.671 20.7177 20.6963C20.7153 20.8103 20.6149 21.5186 20.5573 21.5755C20.4107 21.6042 20.2339 21.5801 20.0819 21.5943C19.4587 21.6524 19.4315 22.3176 19.361 22.8095L19.2302 23.7515C19.2144 23.8721 19.2091 24.0725 19.1323 24.166C18.9488 24.1908 18.7427 24.1706 18.5568 24.1682C18.4587 24.1701 18.3369 24.1851 18.2441 24.1522C18.2408 24.142 18.2383 24.1317 18.2368 24.1211C18.2167 23.9836 18.5193 22.1797 18.5827 21.9751C18.65 21.7582 18.747 21.5533 18.8821 21.3714C19.2626 20.8589 19.7815 20.7108 20.3764 20.6263Z" fill="#E53B31"/>
<path d="M24.4628 19.5976L24.4711 19.5967C24.673 19.5784 25.0049 19.5462 25.1692 19.6881C25.2506 19.7585 25.2889 19.8615 25.2968 19.9678C25.3078 20.1169 25.2706 20.5281 25.1767 20.6396C25.36 20.637 25.5432 20.6379 25.7264 20.6383C25.7355 20.658 25.7417 20.6791 25.7423 20.7009C25.7466 20.8468 25.6945 20.9928 25.5964 21.0984C25.4536 21.2523 25.2885 21.2898 25.0875 21.2957C25.1642 21.5011 24.8241 22.9114 24.8335 23.2979C24.8345 23.34 24.836 23.3835 24.8679 23.4142C24.991 23.4875 25.1665 23.4583 25.3043 23.4523C25.3062 23.4599 25.3079 23.4676 25.3093 23.4753C25.3336 23.6123 25.2951 23.9493 25.2183 24.0624L25.2395 24.1202C25.2301 24.1341 25.2246 24.1475 25.209 24.1539C25.0429 24.2227 24.2617 24.1828 24.088 24.1049C23.9602 24.0476 23.891 23.9318 23.8671 23.7956C23.8123 23.4833 24.0705 22.1403 24.1335 21.7159C24.1492 21.6103 24.2026 21.3939 24.1645 21.297C24.0373 21.2894 23.9083 21.2942 23.7808 21.295C23.8314 21.2338 23.8425 21.0585 23.8639 20.9732C23.9185 20.7559 24.0983 20.7252 24.2646 20.6253C24.4154 20.4383 24.3181 19.7583 24.4628 19.5976Z" fill="#E53B31"/>
<path d="M16.241 21.4986C16.3412 21.6736 16.0628 22.7402 16.0657 23.0377C16.0667 23.139 16.0897 23.2541 16.1642 23.3267C16.2748 23.4344 16.4393 23.4953 16.5913 23.4909C16.6998 23.4878 16.8114 23.4525 16.9076 23.4022C17.2545 23.2212 17.2739 22.8737 17.3238 22.5209C17.3561 22.2932 17.3861 22.0654 17.413 21.837C17.4227 21.7547 17.4279 21.5935 17.487 21.5327C17.5447 21.4733 18.2396 21.4981 18.3607 21.4958C18.3652 21.5065 18.3684 21.5172 18.3717 21.5283C18.3761 21.5429 18.3798 21.5577 18.3811 21.573C18.3914 21.6904 18.342 22.0827 18.2735 22.1675C18.3362 22.3689 18.1154 23.2005 18.0267 23.3899C17.8509 23.7656 17.5831 23.9562 17.2039 24.0931C16.6976 24.2759 16.1469 24.2714 15.6577 24.034C15.4485 23.9325 15.2801 23.7834 15.2015 23.5569C15.1528 23.4165 15.1403 23.2678 15.1417 23.1198C15.1439 22.879 15.2764 21.6859 15.3601 21.5077C15.6412 21.4703 15.9565 21.4984 16.241 21.4986Z" fill="#E53B31"/>
<path d="M11.2712 19.4511C11.4414 19.4416 12.5023 19.4174 12.5916 19.4653C12.5713 19.5011 12.479 19.5108 12.4399 19.5189C10.1949 19.9791 7.98528 20.8409 6.25882 22.41C5.79803 22.1315 5.34809 21.8243 4.87842 21.5628C6.70607 20.2623 9.053 19.5562 11.2712 19.4511Z" fill="#E53B31"/>
<path d="M9.69197 20.7646C9.69365 20.7647 9.69529 20.7647 9.69698 20.7647C9.73316 20.7643 9.76563 20.7688 9.79959 20.7815C9.99924 20.8563 11.2885 21.444 11.3906 21.5295C11.3306 21.5962 10.3304 21.9109 10.141 21.9837C9.84324 22.0983 9.54941 22.2251 9.26073 22.3614C8.0905 22.9137 6.98086 23.5866 5.93984 24.3617C5.60113 24.6139 5.28015 24.8877 4.94839 25.1486C4.62227 25.3978 4.28365 25.7033 4.00684 26.008L4.01249 25.995C4.19065 25.5969 4.48448 25.2076 4.73904 24.8552C5.98573 23.1289 7.69748 21.5216 9.69197 20.7646Z" fill="#0050A4"/>
<path d="M13.4495 20.5523C13.7842 20.519 14.1882 20.5556 14.4894 20.7142C14.7174 20.8343 14.8635 21.0292 14.94 21.276C14.9847 21.4204 15.023 21.5798 14.9501 21.7221C14.9346 21.7235 14.919 21.7247 14.9034 21.7256C14.6522 21.7402 14.2951 21.7752 14.1022 21.5808C14.0361 21.5142 13.9928 21.422 13.923 21.3602C13.8058 21.2563 13.5906 21.2655 13.4457 21.2756C13.3113 21.2849 13.122 21.3241 13.0571 21.4597C13.0283 21.5196 13.0126 21.5811 12.9682 21.6323C12.9673 21.6334 12.9663 21.6344 12.9653 21.6355C13.0755 21.6943 13.151 21.7875 13.2742 21.8349C13.7331 22.0117 14.3456 22.0088 14.7173 22.3738C14.8496 22.5037 14.9136 22.6735 14.9159 22.8592C14.92 23.1823 14.7764 23.5334 14.5553 23.7629C14.2202 24.1108 13.6993 24.2211 13.2363 24.2267C12.9909 24.2754 12.5444 24.192 12.3206 24.0922C12.0498 23.9715 11.802 23.707 11.7902 23.3916C11.7857 23.2725 11.8101 23.1023 11.7669 22.9928C11.7663 22.9914 11.7657 22.99 11.7651 22.9886C12.0626 22.9666 12.3767 22.9768 12.6753 22.9837C12.7663 23.1042 12.6953 23.2486 12.8356 23.3703C12.9679 23.485 13.1974 23.5336 13.3671 23.5185C13.523 23.5045 13.7676 23.4624 13.8728 23.3311C13.918 23.2747 13.9574 23.1883 13.9484 23.114C13.9178 22.8613 13.1308 22.7539 12.9223 22.6906C12.7251 22.6309 12.5167 22.5561 12.352 22.4277C12.1998 22.309 12.0963 22.1454 12.0714 21.9503C12.0343 21.6612 12.1528 21.3142 12.3253 21.0867C12.5916 20.7356 13.0362 20.607 13.4495 20.5523Z" fill="#E53B31"/>
<path d="M26.3841 19.5969C26.4913 19.5804 26.6105 19.5853 26.7191 19.5841C26.882 19.5823 27.0431 19.6023 27.165 19.7249C27.2382 19.7986 27.2399 19.9112 27.2406 20.0106C27.2423 20.2769 27.0461 21.5804 26.9737 21.8426C26.9642 21.8767 26.9461 21.9059 26.9217 21.931C27.0005 21.8891 28.1674 20.7231 28.2351 20.6221C28.602 20.6099 28.9698 20.6304 29.337 20.6149C29.3367 20.6211 29.3362 20.6271 29.3347 20.6331C29.3162 20.7079 28.0106 21.9141 27.906 21.9841C27.9153 21.9921 27.9246 22.0012 27.9317 22.0112C28.011 22.1222 28.5169 23.3287 28.5807 23.5075C28.5902 23.5341 28.5935 23.5563 28.5896 23.5845C28.6007 23.5926 28.6116 23.6017 28.619 23.6136C28.6858 23.7211 28.8517 24.049 28.8278 24.1681C28.4592 24.1579 28.0889 24.1658 27.7201 24.1669C27.7205 24.1639 27.7209 24.1609 27.7211 24.1579C27.7292 24.0498 27.2467 22.859 27.1459 22.7361C27.0984 22.6782 27.0627 22.659 26.9917 22.6523C26.6977 22.7729 26.7766 23.9178 26.6222 24.1637C26.6215 24.1649 26.6207 24.166 26.6199 24.1672L25.6748 24.1656C25.7637 24.0256 26.1852 20.9132 26.2472 20.4829C26.2844 20.2252 26.3054 19.8366 26.3841 19.5969Z" fill="#0050A4"/>
<path d="M22.0889 20.5527C22.3513 20.5285 22.6486 20.5454 22.9055 20.602C23.1466 20.6552 23.3919 20.7698 23.5289 20.9882C23.5927 21.0898 23.6283 21.2067 23.6378 21.3266C23.6615 21.6288 23.501 22.5902 23.4309 22.9129C23.3395 23.3338 23.1329 23.6993 22.7692 23.9342C22.3478 24.2063 21.6266 24.3027 21.1397 24.1914C20.8949 24.1355 20.6494 24.015 20.5262 23.782C20.4822 23.6989 20.4565 23.6096 20.4062 23.5292C20.4543 23.4435 20.444 23.0611 20.4842 22.9168C20.7011 22.1384 21.3704 22.0579 22.053 21.9474C22.2277 21.9192 22.4222 21.8977 22.5788 21.8081C22.6534 21.7654 22.7156 21.7049 22.7385 21.6187C22.7532 21.563 22.7531 21.4978 22.723 21.4471C22.68 21.3746 22.5757 21.3439 22.4992 21.3241C22.2761 21.2665 22.0112 21.2651 21.8103 21.3916C21.7425 21.4342 21.6876 21.4918 21.6178 21.5339C21.3885 21.5831 20.9851 21.5392 20.7337 21.5419C20.8415 21.4157 20.8788 21.2331 20.9815 21.0989C21.2623 20.7319 21.6512 20.6085 22.0889 20.5527ZM22.5805 22.4083C22.2303 22.6109 21.4483 22.5435 21.3257 23.0121C21.3022 23.102 21.3064 23.2726 21.354 23.3533C21.3697 23.3798 21.3884 23.4029 21.4027 23.4306C21.6104 23.522 21.8344 23.5249 22.046 23.4396C22.2534 23.356 22.4301 23.1834 22.5183 22.975C22.5889 22.8082 22.6088 22.6193 22.6343 22.4408C22.6138 22.4128 22.6144 22.4135 22.5805 22.4083Z" fill="#E53B31"/>
<path d="M30.625 20.552C30.8838 20.53 31.184 20.5484 31.4372 20.6057C31.6706 20.6584 31.8996 20.757 32.0323 20.9702C32.1016 21.0816 32.1382 21.2104 32.1469 21.3414C32.1676 21.6549 32.0106 22.5782 31.9363 22.9155C31.8427 23.3409 31.6338 23.7098 31.265 23.9467C30.86 24.2068 30.0939 24.2924 29.626 24.185C29.3921 24.1313 29.1223 23.9993 29.0211 23.7631C28.9861 23.6814 28.9764 23.5895 28.9287 23.5138L28.9263 23.51C28.9612 23.4432 28.9679 22.9433 29.0502 22.7371C29.2823 22.1547 29.9286 22.0455 30.4693 21.9625C30.6443 21.9357 30.8351 21.9177 30.9988 21.8462C31.1039 21.8003 31.2289 21.7091 31.2713 21.5973C31.2842 21.5635 31.2871 21.5257 31.272 21.4922C31.2391 21.4193 31.1509 21.3783 31.0805 21.3525C30.9023 21.2872 30.5192 21.2499 30.3543 21.3582C30.2747 21.4105 30.2198 21.4964 30.1324 21.5374C30.1311 21.538 30.1298 21.5385 30.1286 21.5391C29.8309 21.5486 29.5313 21.5389 29.2333 21.5431C29.3484 21.4266 29.3828 21.2324 29.488 21.0991C29.7834 20.7249 30.1721 20.6018 30.625 20.552ZM31.0878 22.4077C31.0868 22.4084 31.0859 22.4091 31.0849 22.4098C30.7618 22.6461 29.9162 22.5193 29.8314 23.0308C29.8078 23.1732 29.8399 23.3198 29.9216 23.4365C30.1606 23.5203 30.3929 23.5213 30.6238 23.4063C30.8168 23.3103 30.9751 23.1383 31.0454 22.9304C31.077 22.8368 31.177 22.4964 31.1365 22.4153C31.1344 22.4111 31.1344 22.4113 31.1315 22.4068L31.0878 22.4077Z" fill="#0050A4"/>
<path d="M39.4673 20.5528L39.4824 20.5515C39.8514 20.5226 40.2612 20.5843 40.5502 20.8366C40.8383 21.088 40.9475 21.4516 40.9745 21.8259C41.0183 22.4341 40.8388 23.152 40.443 23.6152C40.1076 24.0077 39.6922 24.1841 39.1888 24.2191C38.8145 24.2281 38.4183 24.1655 38.1173 23.9214C37.8843 23.7324 37.7602 23.4541 37.7278 23.1568C37.6563 22.501 37.7836 21.7143 38.1973 21.1909C38.5401 20.7572 38.9406 20.6106 39.4673 20.5528ZM39.3976 21.3428C39.1221 21.4272 38.9714 21.4981 38.8288 21.7674C38.6466 22.1112 38.5524 22.7125 38.6662 23.0957C38.703 23.2193 38.7773 23.3413 38.8916 23.4044C38.9902 23.459 39.1402 23.4858 39.25 23.4643C39.4608 23.4367 39.6268 23.3076 39.7545 23.1389C39.9914 22.8259 40.1098 22.3014 40.0593 21.9125C40.036 21.7331 39.9616 21.5474 39.8168 21.4347C39.6862 21.333 39.5531 21.328 39.3976 21.3428Z" fill="#0050A4"/>
<path d="M35.9671 20.5528C36.3006 20.5226 36.6615 20.5792 36.9682 20.7158C37.2005 20.8192 37.4486 20.9939 37.5443 21.2432C37.6154 21.4285 37.6352 21.6252 37.6338 21.8228C37.6309 22.2101 37.5501 22.6055 37.4947 22.9878C37.4167 23.5265 37.3835 24.1571 37.1655 24.6587C36.9816 25.0818 36.6674 25.3176 36.2491 25.4815C35.7801 25.6653 35.1673 25.7275 34.699 25.5147C34.1706 25.2746 34.213 24.9632 34.0381 24.5L34.2384 24.4949C34.4857 24.4938 34.7335 24.4898 34.9807 24.4996C35.0977 24.5538 35.1782 24.7065 35.2994 24.7755C35.432 24.851 35.6047 24.8582 35.7492 24.8174C35.9882 24.7499 36.1864 24.5491 36.3049 24.3336C36.3868 24.1848 36.4959 23.8993 36.4489 23.7305C36.4475 23.7636 36.4339 23.7849 36.4145 23.8103C36.2345 24.0454 35.9316 24.1747 35.6481 24.2097C35.3267 24.2494 35.0012 24.1765 34.7442 23.9715C34.4627 23.7469 34.3137 23.4068 34.2728 23.0514C34.2014 22.4311 34.4043 21.6325 34.783 21.1458C35.0982 20.7406 35.4794 20.61 35.9671 20.5528ZM36.0019 21.3429C35.7596 21.3956 35.6055 21.4519 35.4672 21.6701C35.2529 22.0082 35.106 22.6141 35.1915 23.0159C35.2218 23.1581 35.289 23.2918 35.4126 23.3726C35.5272 23.4475 35.6602 23.453 35.7921 23.4504C36.0236 23.4347 36.1969 23.3562 36.3517 23.1762C36.6049 22.8817 36.7083 22.4033 36.6819 22.0209C36.6682 21.8215 36.6079 21.5972 36.4541 21.4613C36.3276 21.3495 36.1663 21.3301 36.0048 21.3426L36.0019 21.3429Z" fill="#0050A4"/>
</g>
<defs>
<clipPath id="clip0_653_729">
<rect width="37" height="7" fill="white" transform="translate(4 19)"/>
</clipPath>
</defs>
</svg>
