<svg width="146" height="146" viewBox="0 0 146 146" fill="none" xmlns="http://www.w3.org/2000/svg">
<rect x="0.493164" y="0.240234" width="145.279" height="145.279" rx="6" fill="black"/>
<g clip-path="url(#clip0_686_1384)">
<path d="M71.3118 17.0188C87.8742 16.676 104.669 19.49 119.453 27.368L119.453 64.0322C119.454 70.3017 119.529 76.5825 119.447 82.8508C119.321 92.4936 116.118 101.6 109.269 108.396C105.18 112.453 99.6188 115.403 94.5737 118.083C89.8192 120.608 84.9694 122.961 80.0965 125.235C79.448 125.538 75.7376 127.364 75.3302 127.358C75.3177 127.373 75.3066 127.388 75.2927 127.402C75.0696 127.615 73.9341 128.132 73.6259 128.119C73.6096 128.121 73.5935 128.126 73.5771 128.126C73.284 128.132 71.0426 127.033 70.5555 126.811C66.102 124.786 61.6832 122.681 57.3071 120.487C52.8592 118.257 48.4224 115.925 44.2114 113.253C41.807 111.728 39.6026 110.047 37.5993 108.001C33.2151 103.523 30.2432 97.9034 28.8309 91.7511C27.669 86.6896 27.8063 81.8549 27.8072 76.7205L27.8073 65.0553L27.8076 27.3655C41.2348 20.1474 56.2481 17.3471 71.3118 17.0188Z" fill="#FAB80A"/>
<path d="M94.1874 27.6757C97.489 27.5469 100.831 27.6337 104.132 27.7641C107.832 27.9103 111.555 28.1272 115.236 28.5294L115.237 64.9086L115.238 76.9977C115.237 79.202 115.289 81.4195 115.217 83.6209C114.938 92.062 112.04 99.8881 105.916 105.716C103.956 107.582 101.758 109.074 99.4632 110.472C97.1155 111.903 94.7001 113.225 92.2717 114.506C87.0246 117.274 81.6627 119.826 76.2768 122.299C75.7791 122.527 74.0267 123.445 73.6214 123.43C73.6096 123.431 73.5979 123.434 73.5861 123.434C73.088 123.424 60.008 117.176 59.6174 116.778C59.6008 116.78 59.5843 116.784 59.5677 116.783C59.2629 116.773 58.0184 116.048 57.6754 115.871C53.2711 113.611 48.7879 111.301 44.7071 108.467C43.2324 107.442 41.8566 106.296 40.5935 105.009C36.8917 101.239 34.3495 96.5069 33.0675 91.3449C32.0189 87.1236 32.0154 83.3217 32.0161 79.0259L32.0162 71.5895L32.0166 50.9048C49.4924 34.502 70.8471 28.3384 94.1874 27.6757Z" fill="#301506"/>
<path d="M101.709 52.7322C104.845 52.4696 108.295 53.4254 110.809 55.3595V62.4092C110.699 62.298 110.586 62.1902 110.472 62.0847C108.472 60.2503 105.892 58.9388 103.14 59.1066C101.914 59.1814 100.655 59.5833 99.8264 60.556C99.1411 61.3611 98.9115 62.4701 98.9938 63.5129C99.2271 66.4724 102.653 67.893 104.832 69.2471C105.924 69.9265 106.989 70.6797 107.959 71.5319C110.327 73.6114 111.766 76.1071 111.995 79.347C112.226 82.6117 111.491 85.8399 109.336 88.3566C107.18 90.875 104.278 91.8234 101.124 92.0541C97.8251 92.1822 94.5436 91.2355 91.7114 89.5324V82.0481C91.7606 82.0939 91.8104 82.1391 91.8602 82.1839C93.9411 84.0442 97.1035 85.5507 99.9114 85.3409C101.136 85.2487 102.352 84.806 103.163 83.8294C103.961 82.8689 104.2 81.6224 104.09 80.3925C103.811 77.2581 100.592 75.7268 98.2701 74.2617C97.2876 73.6418 96.3343 72.9683 95.4476 72.212C93.1583 70.2612 91.7016 67.9212 91.4331 64.8283C91.1765 61.8685 91.7427 59.0446 93.671 56.719C95.6961 54.2763 98.629 52.9888 101.709 52.7322Z" fill="#FAB80A"/>
<path d="M36.0891 53.5381H44.0523L44.0517 71.6374L44.0496 77.2151C44.0494 78.4229 43.9992 79.6523 44.1307 80.8535C44.228 81.7423 44.4717 82.6846 44.9357 83.4513C45.4378 84.281 46.2328 84.8298 47.1597 85.0467C48.7365 85.416 50.6535 85.0412 52.0198 84.1789V53.5381H59.9769V60.4108V88.8055C56.4377 91.1852 52.2033 92.0663 48.0087 92.0652C44.853 92.0641 41.55 91.3613 39.2492 88.9942C37.7703 87.4729 36.9234 85.4778 36.4931 83.4072C36.0513 81.2819 36.0872 79.1505 36.0879 76.9915L36.0887 71.755L36.0891 53.5381Z" fill="#FAB80A"/>
<path d="M73.8497 52.733C75.4302 52.5966 77.1846 52.79 78.7221 53.1807C82.1346 54.048 84.8835 56.2089 86.6872 59.274C90.0115 64.9214 90.2064 73.6318 88.6787 79.8691C87.6784 83.9541 85.6229 87.9933 81.9798 90.2169C79.0097 92.0303 75.3592 92.319 72.0441 91.4683V100.101V108.576H64.0767V55.6081C67.1155 53.6807 70.2995 52.9104 73.8497 52.733Z" fill="#FAB80A"/>
<path d="M74.1412 59.3006C74.5054 59.2728 74.8673 59.2587 75.2326 59.2712C76.6405 59.3193 77.9905 59.8345 78.9537 60.907C81.548 63.7959 81.5436 70.583 81.3661 74.2923C81.2091 77.5763 80.754 81.7176 78.224 84.0549C77.906 84.3122 77.587 84.5413 77.2231 84.7273C75.5855 85.5631 73.7272 85.4002 72.0425 84.8184L72.0425 59.844C72.7156 59.5413 73.4139 59.3911 74.1412 59.3006Z" fill="#301506"/>
</g>
<defs>
<clipPath id="clip0_686_1384">
<rect width="93" height="113" fill="white" transform="translate(27 16)"/>
</clipPath>
</defs>
</svg>
