<svg width="146" height="146" viewBox="0 0 146 146" fill="none" xmlns="http://www.w3.org/2000/svg">
<rect width="145.279" height="145.279" rx="6" fill="#05559E"/>
<path d="M118.279 27H121.083C121.925 27.4748 122.974 27.9206 123.371 28.8761C123.36 29.5532 123.115 29.7924 122.644 30.2582C119.872 32.9974 116.757 35.489 113.828 38.0537L97.3235 52.5161C94.7062 54.8127 90.4896 58.0105 88.4071 60.6809C90.0202 63.1928 94.6771 67.397 96.9581 69.7151L121.009 94.1179L127.49 100.633C129.285 102.438 131.339 104.256 132.698 106.437C133.749 108.126 134.321 110.223 133.908 112.218C133.527 114.058 132.32 115.552 130.798 116.553C129.756 117.237 128.629 117.623 127.458 118H123.369C123.12 117.623 121.045 117.07 120.516 116.836C119.497 116.384 118.521 115.85 117.619 115.186C115.829 113.871 114.23 111.641 112.734 109.968L103.591 99.7793L84.861 78.9157C81.9419 75.6583 78.7519 72.4638 76.0191 69.0592C75.2909 68.1516 74.5927 67.0739 74.4119 65.8898C74.261 64.9036 74.5493 63.8864 75.1902 63.1318C76.3562 61.7582 77.958 60.6171 79.3351 59.461L86.445 53.4892L112.25 31.8285C113.2 31.0384 117.787 27.7247 118.244 27.0539C118.256 27.0362 118.267 27.018 118.279 27Z" fill="white"/>
<path d="M11 27H20.2708H23.4637H80.2127H83.3408C85.3648 27.5137 87.7651 28.1675 88.9029 30.125C89.1759 30.595 89.2842 31.1676 89.3984 31.6965C88.7457 34.3325 85.7179 39.1486 84.3361 41.7386L75.1247 59.1408L56.4237 94.4297C53.3437 100.242 50.3664 106.512 47.0061 112.128C45.9869 113.832 44.9304 115.195 43.2175 116.241C41.9212 117.034 40.4969 117.519 39.0701 118H34.6292H16.3644H13.1681H11V115.544V113.615V27ZM11 27V113.615C12.5254 110.311 16.4802 104.975 18.6329 101.746L31.5644 82.1193C33.6251 78.9856 35.886 75.9097 37.8076 72.6898C38.625 71.3205 39.3049 69.7915 38.8774 68.1584C38.2112 65.6141 35.0887 62.1734 33.5173 60.06L21.3256 43.6057C19.1012 40.6138 16.6572 37.6425 14.6209 34.5198C14.1793 33.8426 13.7159 33.0636 13.5352 32.2635C13.3795 31.5745 13.6903 30.8043 14.0497 30.2304C15.3095 28.2191 18.1325 27.4761 20.2708 27H11ZM23.4637 27C24.6139 27.3464 25.9168 27.665 26.8389 28.4925C28.3381 29.8377 29.6126 31.6318 30.8989 33.1882L38.0264 41.8214L47.3844 53.1401C48.8914 54.964 50.9722 57.0134 52.0715 59.1C52.4775 59.8706 52.8176 60.9978 52.5588 61.864C51.6075 65.0471 47.8889 70.1952 46.0558 73.1366L36.8833 87.8773L25.5085 106.161C23.5663 109.283 21.7204 112.6 19.5957 115.588C18.9912 116.438 18.3259 117.042 17.4148 117.536C17.0789 117.718 16.7194 117.862 16.3644 118H34.6292C33.7005 117.654 32.7379 117.309 31.8693 116.823C30.1073 115.838 28.7082 114.369 28.1399 112.364C27.5259 110.197 27.8958 107.843 28.9454 105.891C29.915 104.087 31.0919 102.351 32.1595 100.601L38.5691 90.0979L58.326 57.7227L70.2474 38.1637C71.925 35.4139 73.9536 31.4562 75.9772 29.0479C77.0286 27.797 78.7273 27.4392 80.2127 27H23.4637ZM11 115.544V118H13.1681C12.1985 117.276 11.5248 116.662 11 115.544Z" fill="white"/>
<path d="M80.2119 27H83.34C85.364 27.5137 87.7643 28.1675 88.9021 30.125C89.1752 30.595 89.2835 31.1676 89.3977 31.6965C88.7449 34.3325 85.7171 39.1486 84.3354 41.7386L75.1239 59.1408L56.423 94.4297C53.3429 100.242 50.3656 106.512 47.0053 112.128C45.9861 113.832 44.9296 115.195 43.2167 116.241C41.9204 117.034 40.4961 117.519 39.0693 118H34.6284C33.6997 117.654 32.7372 117.309 31.8686 116.823C30.1066 115.838 28.7074 114.369 28.1391 112.364C27.5252 110.197 27.895 107.843 28.9447 105.891C29.9142 104.087 31.0912 102.351 32.1587 100.601L38.5683 90.0979L58.3252 57.7227L70.2466 38.1637C71.9242 35.4139 73.9529 31.4562 75.9764 29.0479C77.0278 27.797 78.7265 27.4392 80.2119 27Z" fill="white"/>
</svg>
