<svg width="591" height="111" viewBox="0 0 591 111" fill="none" xmlns="http://www.w3.org/2000/svg">
<path d="M135.44 76V33.46H143.72V53.68L161.6 33.4H170.72L154.4 52.3L171.74 76H162.38L149.12 57.64L143.72 63.28V76H135.44ZM172.403 66.7C172.403 64.66 172.963 62.88 174.083 61.36C175.243 59.8 176.843 58.6 178.883 57.76C180.923 56.92 183.263 56.5 185.903 56.5C187.223 56.5 188.563 56.6 189.923 56.8C191.283 57 192.463 57.32 193.463 57.76V56.08C193.463 54.08 192.863 52.54 191.663 51.46C190.503 50.38 188.763 49.84 186.443 49.84C184.723 49.84 183.083 50.14 181.523 50.74C179.963 51.34 178.323 52.22 176.603 53.38L174.023 48.1C176.103 46.74 178.223 45.72 180.383 45.04C182.583 44.36 184.883 44.02 187.283 44.02C191.763 44.02 195.243 45.14 197.723 47.38C200.243 49.62 201.503 52.82 201.503 56.98V67C201.503 67.84 201.643 68.44 201.923 68.8C202.243 69.16 202.743 69.38 203.423 69.46V76C202.703 76.12 202.043 76.22 201.443 76.3C200.883 76.38 200.403 76.42 200.003 76.42C198.403 76.42 197.183 76.06 196.343 75.34C195.543 74.62 195.043 73.74 194.843 72.7L194.663 71.08C193.303 72.84 191.603 74.2 189.563 75.16C187.523 76.12 185.443 76.6 183.323 76.6C181.243 76.6 179.363 76.18 177.683 75.34C176.043 74.46 174.743 73.28 173.783 71.8C172.863 70.28 172.403 68.58 172.403 66.7ZM191.963 68.32C192.403 67.84 192.763 67.36 193.043 66.88C193.323 66.4 193.463 65.96 193.463 65.56V62.38C192.503 61.98 191.463 61.68 190.343 61.48C189.223 61.24 188.163 61.12 187.163 61.12C185.083 61.12 183.363 61.58 182.003 62.5C180.683 63.38 180.023 64.56 180.023 66.04C180.023 66.84 180.243 67.6 180.683 68.32C181.123 69.04 181.763 69.62 182.603 70.06C183.443 70.5 184.443 70.72 185.603 70.72C186.803 70.72 187.983 70.5 189.143 70.06C190.303 69.58 191.243 69 191.963 68.32ZM227.736 51.52C225.296 51.52 223.116 52 221.196 52.96C219.276 53.88 217.896 55.22 217.056 56.98V76H209.016V44.56H216.396V51.28C217.516 49.12 218.936 47.42 220.656 46.18C222.376 44.94 224.196 44.26 226.116 44.14C226.556 44.14 226.896 44.14 227.136 44.14C227.376 44.14 227.576 44.16 227.736 44.2V51.52ZM244.226 76.18C242.146 76.18 240.226 75.78 238.466 74.98C236.746 74.14 235.246 72.98 233.966 71.5C232.726 70.02 231.766 68.32 231.086 66.4C230.406 64.48 230.066 62.44 230.066 60.28C230.066 58 230.426 55.88 231.146 53.92C231.866 51.96 232.866 50.24 234.146 48.76C235.466 47.24 237.006 46.08 238.766 45.28C240.566 44.44 242.546 44.02 244.706 44.02C247.146 44.02 249.286 44.58 251.126 45.7C252.966 46.78 254.486 48.24 255.686 50.08V44.56H262.706V74.5C262.706 77.62 261.946 80.28 260.426 82.48C258.946 84.72 256.886 86.42 254.246 87.58C251.606 88.78 248.606 89.38 245.246 89.38C241.846 89.38 238.966 88.8 236.606 87.64C234.246 86.52 232.226 84.92 230.546 82.84L234.926 78.58C236.126 80.06 237.626 81.22 239.426 82.06C241.266 82.9 243.206 83.32 245.246 83.32C246.966 83.32 248.526 83 249.926 82.36C251.366 81.76 252.506 80.8 253.346 79.48C254.226 78.2 254.666 76.54 254.666 74.5V70.54C253.626 72.34 252.146 73.74 250.226 74.74C248.346 75.7 246.346 76.18 244.226 76.18ZM246.926 69.76C247.806 69.76 248.646 69.62 249.446 69.34C250.246 69.06 250.986 68.68 251.666 68.2C252.346 67.72 252.946 67.16 253.466 66.52C253.986 65.84 254.386 65.16 254.666 64.48V56.98C254.186 55.74 253.506 54.66 252.626 53.74C251.786 52.82 250.826 52.12 249.746 51.64C248.706 51.12 247.606 50.86 246.446 50.86C245.206 50.86 244.086 51.12 243.086 51.64C242.086 52.16 241.226 52.9 240.506 53.86C239.786 54.78 239.226 55.82 238.826 56.98C238.466 58.1 238.286 59.28 238.286 60.52C238.286 61.8 238.506 63 238.946 64.12C239.386 65.24 239.986 66.22 240.746 67.06C241.546 67.9 242.466 68.56 243.506 69.04C244.586 69.52 245.726 69.76 246.926 69.76ZM284.473 76.6C281.913 76.6 279.613 76.18 277.573 75.34C275.533 74.46 273.793 73.26 272.353 71.74C270.953 70.22 269.873 68.48 269.113 66.52C268.353 64.56 267.973 62.5 267.973 60.34C267.973 58.14 268.353 56.06 269.113 54.1C269.873 52.14 270.953 50.4 272.353 48.88C273.793 47.36 275.533 46.18 277.573 45.34C279.613 44.46 281.913 44.02 284.473 44.02C287.033 44.02 289.313 44.46 291.313 45.34C293.353 46.18 295.093 47.36 296.533 48.88C297.973 50.4 299.053 52.14 299.773 54.1C300.533 56.06 300.913 58.14 300.913 60.34C300.913 62.5 300.533 64.56 299.773 66.52C299.053 68.48 297.973 70.22 296.533 71.74C295.133 73.26 293.413 74.46 291.373 75.34C289.333 76.18 287.033 76.6 284.473 76.6ZM276.253 60.34C276.253 62.18 276.613 63.82 277.333 65.26C278.053 66.66 279.033 67.76 280.273 68.56C281.513 69.36 282.913 69.76 284.473 69.76C285.993 69.76 287.373 69.36 288.613 68.56C289.853 67.72 290.833 66.6 291.553 65.2C292.313 63.76 292.693 62.12 292.693 60.28C292.693 58.48 292.313 56.86 291.553 55.42C290.833 53.98 289.853 52.86 288.613 52.06C287.373 51.26 285.993 50.86 284.473 50.86C282.913 50.86 281.513 51.28 280.273 52.12C279.033 52.92 278.053 54.04 277.333 55.48C276.613 56.88 276.253 58.5 276.253 60.34Z" fill="#EBEBEB"/>
<path d="M336.96 73.24V76H308.58V33.4H336.42V36.16H311.64V52.9H333.3V55.54H311.64V73.24H336.96ZM369.567 76H366.567V58.6C366.567 54.6 365.987 51.68 364.827 49.84C363.707 47.96 361.907 47.02 359.427 47.02C357.667 47.02 355.927 47.44 354.207 48.28C352.527 49.12 351.047 50.28 349.767 51.76C348.527 53.2 347.627 54.84 347.067 56.68V76H344.067V44.8H346.887V52.24C347.727 50.64 348.847 49.26 350.247 48.1C351.647 46.9 353.207 45.96 354.927 45.28C356.647 44.6 358.427 44.26 360.267 44.26C361.987 44.26 363.427 44.58 364.587 45.22C365.787 45.82 366.747 46.7 367.467 47.86C368.227 49.02 368.767 50.46 369.087 52.18C369.407 53.9 369.567 55.86 369.567 58.06V76ZM392.264 74.5C392.064 74.58 391.664 74.78 391.064 75.1C390.464 75.42 389.704 75.72 388.784 76C387.864 76.24 386.844 76.36 385.724 76.36C384.644 76.36 383.624 76.16 382.664 75.76C381.744 75.32 381.004 74.68 380.444 73.84C379.884 73 379.604 71.98 379.604 70.78V47.26H375.224V44.8H379.604V34.12H382.604V44.8H389.864V47.26H382.604V70.06C382.684 71.22 383.104 72.1 383.864 72.7C384.624 73.26 385.504 73.54 386.504 73.54C387.744 73.54 388.824 73.34 389.744 72.94C390.664 72.5 391.204 72.22 391.364 72.1L392.264 74.5ZM410.237 76.6C408.037 76.6 405.997 76.18 404.117 75.34C402.237 74.46 400.597 73.28 399.197 71.8C397.837 70.28 396.757 68.54 395.957 66.58C395.197 64.58 394.817 62.48 394.817 60.28C394.817 57.32 395.477 54.64 396.797 52.24C398.117 49.84 399.937 47.92 402.257 46.48C404.577 45 407.177 44.26 410.057 44.26C413.017 44.26 415.637 45 417.917 46.48C420.197 47.96 421.997 49.92 423.317 52.36C424.677 54.76 425.357 57.4 425.357 60.28C425.357 60.52 425.357 60.76 425.357 61C425.357 61.24 425.337 61.44 425.297 61.6H397.937C398.097 63.96 398.757 66.1 399.917 68.02C401.077 69.94 402.557 71.46 404.357 72.58C406.197 73.66 408.197 74.2 410.357 74.2C412.517 74.2 414.557 73.64 416.477 72.52C418.397 71.4 419.737 69.96 420.497 68.2L423.137 68.92C422.537 70.4 421.577 71.72 420.257 72.88C418.977 74.04 417.457 74.96 415.697 75.64C413.977 76.28 412.157 76.6 410.237 76.6ZM397.817 59.26H422.477C422.317 56.82 421.677 54.66 420.557 52.78C419.437 50.9 417.957 49.42 416.117 48.34C414.317 47.26 412.317 46.72 410.117 46.72C407.917 46.72 405.917 47.26 404.117 48.34C402.317 49.42 400.857 50.9 399.737 52.78C398.617 54.66 397.977 56.82 397.817 59.26ZM444.558 76.48C442.438 76.48 440.458 76.04 438.618 75.16C436.818 74.28 435.258 73.08 433.938 71.56C432.658 70 431.638 68.28 430.878 66.4C430.158 64.48 429.798 62.5 429.798 60.46C429.798 58.34 430.138 56.3 430.818 54.34C431.538 52.38 432.538 50.66 433.818 49.18C435.138 47.66 436.678 46.46 438.438 45.58C440.198 44.7 442.158 44.26 444.318 44.26C447.038 44.26 449.398 44.98 451.398 46.42C453.438 47.82 455.158 49.54 456.558 51.58V44.8H459.318V76.6C459.318 79.4 458.638 81.76 457.278 83.68C455.918 85.6 454.118 87.02 451.878 87.94C449.638 88.9 447.218 89.38 444.618 89.38C440.978 89.38 438.078 88.72 435.918 87.4C433.798 86.08 432.078 84.34 430.758 82.18L432.798 80.8C434.038 82.88 435.718 84.42 437.838 85.42C439.958 86.42 442.218 86.92 444.618 86.92C446.738 86.92 448.678 86.52 450.438 85.72C452.238 84.96 453.658 83.8 454.698 82.24C455.778 80.72 456.318 78.84 456.318 76.6V69.76C455.078 71.8 453.378 73.44 451.218 74.68C449.098 75.88 446.878 76.48 444.558 76.48ZM445.278 73.9C446.598 73.9 447.878 73.66 449.118 73.18C450.358 72.7 451.498 72.06 452.538 71.26C453.578 70.42 454.438 69.5 455.118 68.5C455.798 67.5 456.198 66.5 456.318 65.5V55.24C455.718 53.64 454.798 52.22 453.558 50.98C452.358 49.7 450.998 48.72 449.478 48.04C447.958 47.32 446.398 46.96 444.798 46.96C442.918 46.96 441.238 47.36 439.758 48.16C438.278 48.96 437.018 50.02 435.978 51.34C434.978 52.62 434.198 54.08 433.638 55.72C433.118 57.32 432.858 58.92 432.858 60.52C432.858 62.32 433.178 64.02 433.818 65.62C434.458 67.22 435.338 68.66 436.458 69.94C437.618 71.18 438.938 72.16 440.418 72.88C441.938 73.56 443.558 73.9 445.278 73.9ZM483.456 47.5C480.656 47.58 478.196 48.42 476.076 50.02C473.996 51.58 472.536 53.74 471.696 56.5V76H468.696V44.8H471.576V52.48C472.656 50.28 474.096 48.5 475.896 47.14C477.696 45.74 479.596 44.94 481.596 44.74C481.996 44.7 482.356 44.68 482.676 44.68C482.996 44.68 483.256 44.68 483.456 44.68V47.5ZM486.331 67C486.331 65.12 486.891 63.5 488.011 62.14C489.131 60.74 490.671 59.66 492.631 58.9C494.591 58.1 496.851 57.7 499.411 57.7C501.011 57.7 502.671 57.84 504.391 58.12C506.111 58.4 507.651 58.78 509.011 59.26V56.32C509.011 53.44 508.171 51.14 506.491 49.42C504.851 47.7 502.571 46.84 499.651 46.84C498.091 46.84 496.471 47.16 494.791 47.8C493.111 48.44 491.391 49.36 489.631 50.56L488.371 48.4C490.411 47.04 492.371 46.02 494.251 45.34C496.171 44.62 498.071 44.26 499.951 44.26C503.671 44.26 506.611 45.36 508.771 47.56C510.931 49.76 512.011 52.76 512.011 56.56V72.04C512.011 72.52 512.111 72.88 512.311 73.12C512.551 73.36 512.891 73.5 513.331 73.54V76C512.971 76.04 512.671 76.06 512.431 76.06C512.191 76.06 511.991 76.06 511.831 76.06C511.071 75.94 510.471 75.62 510.031 75.1C509.631 74.58 509.411 74 509.371 73.36V70.9C507.931 72.7 506.071 74.1 503.791 75.1C501.551 76.1 499.191 76.6 496.711 76.6C494.751 76.6 492.971 76.18 491.371 75.34C489.811 74.5 488.571 73.36 487.651 71.92C486.771 70.44 486.331 68.8 486.331 67ZM507.811 69.58C508.211 69.06 508.511 68.56 508.711 68.08C508.911 67.6 509.011 67.16 509.011 66.76V61.6C507.571 61.04 506.071 60.62 504.511 60.34C502.951 60.06 501.351 59.92 499.711 59.92C496.591 59.92 494.051 60.54 492.091 61.78C490.171 63.02 489.211 64.7 489.211 66.82C489.211 68.14 489.551 69.36 490.231 70.48C490.911 71.6 491.851 72.5 493.051 73.18C494.291 73.86 495.711 74.2 497.311 74.2C499.551 74.2 501.611 73.78 503.491 72.94C505.411 72.06 506.851 70.94 507.811 69.58ZM534.823 74.5C534.623 74.58 534.223 74.78 533.623 75.1C533.023 75.42 532.263 75.72 531.343 76C530.423 76.24 529.403 76.36 528.283 76.36C527.203 76.36 526.183 76.16 525.223 75.76C524.303 75.32 523.563 74.68 523.003 73.84C522.443 73 522.163 71.98 522.163 70.78V47.26H517.783V44.8H522.163V34.12H525.163V44.8H532.423V47.26H525.163V70.06C525.243 71.22 525.663 72.1 526.423 72.7C527.183 73.26 528.063 73.54 529.063 73.54C530.303 73.54 531.383 73.34 532.303 72.94C533.223 72.5 533.763 72.22 533.923 72.1L534.823 74.5ZM552.616 76.6C550.416 76.6 548.376 76.18 546.496 75.34C544.656 74.5 543.056 73.34 541.696 71.86C540.336 70.34 539.276 68.6 538.516 66.64C537.756 64.68 537.376 62.62 537.376 60.46C537.376 58.26 537.756 56.2 538.516 54.28C539.276 52.32 540.336 50.6 541.696 49.12C543.096 47.6 544.716 46.42 546.556 45.58C548.436 44.7 550.456 44.26 552.616 44.26C554.776 44.26 556.776 44.7 558.616 45.58C560.456 46.42 562.076 47.6 563.476 49.12C564.876 50.6 565.956 52.32 566.716 54.28C567.476 56.2 567.856 58.26 567.856 60.46C567.856 62.62 567.476 64.68 566.716 66.64C565.956 68.6 564.876 70.34 563.476 71.86C562.116 73.34 560.496 74.5 558.616 75.34C556.776 76.18 554.776 76.6 552.616 76.6ZM540.376 60.58C540.376 63.02 540.916 65.26 541.996 67.3C543.116 69.3 544.596 70.9 546.436 72.1C548.276 73.3 550.316 73.9 552.556 73.9C554.796 73.9 556.836 73.3 558.676 72.1C560.556 70.86 562.036 69.22 563.116 67.18C564.236 65.1 564.796 62.84 564.796 60.4C564.796 57.96 564.236 55.72 563.116 53.68C562.036 51.64 560.556 50.02 558.676 48.82C556.836 47.58 554.816 46.96 552.616 46.96C550.376 46.96 548.336 47.58 546.496 48.82C544.656 50.06 543.176 51.7 542.056 53.74C540.936 55.78 540.376 58.06 540.376 60.58ZM547.216 37.6V32.32H549.856V37.6H547.216ZM555.376 37.6V32.32H558.016V37.6H555.376ZM589.804 47.5C587.004 47.58 584.544 48.42 582.424 50.02C580.344 51.58 578.884 53.74 578.044 56.5V76H575.044V44.8H577.924V52.48C579.004 50.28 580.444 48.5 582.244 47.14C584.044 45.74 585.944 44.94 587.944 44.74C588.344 44.7 588.704 44.68 589.024 44.68C589.344 44.68 589.604 44.68 589.804 44.68V47.5Z" fill="#EBEBEB"/>
<path d="M0 0H111V111H0V0Z" fill="white"/>
<path fill-rule="evenodd" clip-rule="evenodd" d="M21.3099 26.6697C20.5886 26.9979 19.9697 27.5387 19.6015 28.2751L12.5474 42.3761C11.6476 44.1751 12.4319 46.3607 14.2696 47.1778L19.2295 49.3823V65.1229C19.2295 66.5169 20.0499 67.7802 21.3238 68.3468L53.0741 82.4551C53.9844 82.8587 55.0228 82.8587 55.9331 82.4551L87.6767 68.3468C88.9499 67.7804 89.771 66.5169 89.7703 65.1224V49.3818L94.7302 47.1773C96.568 46.3601 97.3521 44.1746 96.4524 42.3756L89.3983 28.2746C89.0328 27.5441 88.4198 27.0059 87.7037 26.6765L55.9333 12.5269C55.5014 12.3352 55.0348 12.2322 54.5622 12.2236C54.0477 12.2145 53.5377 12.3182 53.0671 12.5269L21.3099 26.6697ZM54.5001 19.6157V40.1021L31.443 29.8582L54.5001 19.6157ZM24.4031 34.4399L49.6914 45.6826L45.7929 53.4738L20.5046 42.2383L24.4031 34.4399ZM84.5971 34.4399L88.4963 42.2383L63.2079 53.4738L59.3087 45.6826L84.5971 34.4399ZM26.2849 52.5169L46.0152 61.2859C47.7367 62.0479 49.7529 61.3227 50.5957 59.6399L50.975 58.8818V73.8026L26.2849 62.829L26.2849 52.5169ZM82.717 52.5169V62.8296L58.0268 73.8032V58.8824L58.4055 59.6405C59.2482 61.324 61.2651 62.0485 62.9866 61.2872L82.717 52.5169Z" fill="url(#paint0_linear_53_71)"/>
<defs>
<linearGradient id="paint0_linear_53_71" x1="54.4999" y1="12.2231" x2="54.4999" y2="82.7578" gradientUnits="userSpaceOnUse">
<stop stop-color="#1D76F2"/>
<stop offset="1" stop-color="#3730A3"/>
</linearGradient>
</defs>
</svg>
