<svg width="591" height="111" viewBox="0 0 591 111" fill="none" xmlns="http://www.w3.org/2000/svg">
<path d="M135.44 77V34.46H143.72V54.68L161.6 34.4H170.72L154.4 53.3L171.74 77H162.38L149.12 58.64L143.72 64.28V77H135.44ZM172.402 67.7C172.402 65.66 172.962 63.88 174.082 62.36C175.242 60.8 176.842 59.6 178.882 58.76C180.922 57.92 183.262 57.5 185.902 57.5C187.222 57.5 188.562 57.6 189.922 57.8C191.282 58 192.462 58.32 193.462 58.76V57.08C193.462 55.08 192.862 53.54 191.662 52.46C190.502 51.38 188.762 50.84 186.442 50.84C184.722 50.84 183.082 51.14 181.522 51.74C179.962 52.34 178.322 53.22 176.602 54.38L174.022 49.1C176.102 47.74 178.222 46.72 180.382 46.04C182.582 45.36 184.882 45.02 187.282 45.02C191.762 45.02 195.242 46.14 197.722 48.38C200.242 50.62 201.502 53.82 201.502 57.98V68C201.502 68.84 201.642 69.44 201.922 69.8C202.242 70.16 202.742 70.38 203.422 70.46V77C202.702 77.12 202.042 77.22 201.442 77.3C200.882 77.38 200.402 77.42 200.002 77.42C198.402 77.42 197.182 77.06 196.342 76.34C195.542 75.62 195.042 74.74 194.842 73.7L194.662 72.08C193.302 73.84 191.602 75.2 189.562 76.16C187.522 77.12 185.442 77.6 183.322 77.6C181.242 77.6 179.362 77.18 177.682 76.34C176.042 75.46 174.742 74.28 173.782 72.8C172.862 71.28 172.402 69.58 172.402 67.7ZM191.962 69.32C192.402 68.84 192.762 68.36 193.042 67.88C193.322 67.4 193.462 66.96 193.462 66.56V63.38C192.502 62.98 191.462 62.68 190.342 62.48C189.222 62.24 188.162 62.12 187.162 62.12C185.082 62.12 183.362 62.58 182.002 63.5C180.682 64.38 180.022 65.56 180.022 67.04C180.022 67.84 180.242 68.6 180.682 69.32C181.122 70.04 181.762 70.62 182.602 71.06C183.442 71.5 184.442 71.72 185.602 71.72C186.802 71.72 187.982 71.5 189.142 71.06C190.302 70.58 191.242 70 191.962 69.32ZM227.735 52.52C225.295 52.52 223.115 53 221.195 53.96C219.275 54.88 217.895 56.22 217.055 57.98V77H209.015V45.56H216.395V52.28C217.515 50.12 218.935 48.42 220.655 47.18C222.375 45.94 224.195 45.26 226.115 45.14C226.555 45.14 226.895 45.14 227.135 45.14C227.375 45.14 227.575 45.16 227.735 45.2V52.52ZM244.226 77.18C242.146 77.18 240.226 76.78 238.466 75.98C236.746 75.14 235.246 73.98 233.966 72.5C232.726 71.02 231.766 69.32 231.086 67.4C230.406 65.48 230.066 63.44 230.066 61.28C230.066 59 230.426 56.88 231.146 54.92C231.866 52.96 232.866 51.24 234.146 49.76C235.466 48.24 237.006 47.08 238.766 46.28C240.566 45.44 242.546 45.02 244.706 45.02C247.146 45.02 249.286 45.58 251.126 46.7C252.966 47.78 254.486 49.24 255.686 51.08V45.56H262.706V75.5C262.706 78.62 261.946 81.28 260.426 83.48C258.946 85.72 256.886 87.42 254.246 88.58C251.606 89.78 248.606 90.38 245.246 90.38C241.846 90.38 238.966 89.8 236.606 88.64C234.246 87.52 232.226 85.92 230.546 83.84L234.926 79.58C236.126 81.06 237.626 82.22 239.426 83.06C241.266 83.9 243.206 84.32 245.246 84.32C246.966 84.32 248.526 84 249.926 83.36C251.366 82.76 252.506 81.8 253.346 80.48C254.226 79.2 254.666 77.54 254.666 75.5V71.54C253.626 73.34 252.146 74.74 250.226 75.74C248.346 76.7 246.346 77.18 244.226 77.18ZM246.926 70.76C247.806 70.76 248.646 70.62 249.446 70.34C250.246 70.06 250.986 69.68 251.666 69.2C252.346 68.72 252.946 68.16 253.466 67.52C253.986 66.84 254.386 66.16 254.666 65.48V57.98C254.186 56.74 253.506 55.66 252.626 54.74C251.786 53.82 250.826 53.12 249.746 52.64C248.706 52.12 247.606 51.86 246.446 51.86C245.206 51.86 244.086 52.12 243.086 52.64C242.086 53.16 241.226 53.9 240.506 54.86C239.786 55.78 239.226 56.82 238.826 57.98C238.466 59.1 238.286 60.28 238.286 61.52C238.286 62.8 238.506 64 238.946 65.12C239.386 66.24 239.986 67.22 240.746 68.06C241.546 68.9 242.466 69.56 243.506 70.04C244.586 70.52 245.726 70.76 246.926 70.76ZM284.473 77.6C281.913 77.6 279.613 77.18 277.573 76.34C275.533 75.46 273.793 74.26 272.353 72.74C270.953 71.22 269.873 69.48 269.113 67.52C268.353 65.56 267.973 63.5 267.973 61.34C267.973 59.14 268.353 57.06 269.113 55.1C269.873 53.14 270.953 51.4 272.353 49.88C273.793 48.36 275.533 47.18 277.573 46.34C279.613 45.46 281.913 45.02 284.473 45.02C287.033 45.02 289.313 45.46 291.313 46.34C293.353 47.18 295.093 48.36 296.533 49.88C297.973 51.4 299.053 53.14 299.773 55.1C300.533 57.06 300.913 59.14 300.913 61.34C300.913 63.5 300.533 65.56 299.773 67.52C299.053 69.48 297.973 71.22 296.533 72.74C295.133 74.26 293.413 75.46 291.373 76.34C289.333 77.18 287.033 77.6 284.473 77.6ZM276.253 61.34C276.253 63.18 276.613 64.82 277.333 66.26C278.053 67.66 279.033 68.76 280.273 69.56C281.513 70.36 282.913 70.76 284.473 70.76C285.993 70.76 287.373 70.36 288.613 69.56C289.853 68.72 290.833 67.6 291.553 66.2C292.313 64.76 292.693 63.12 292.693 61.28C292.693 59.48 292.313 57.86 291.553 56.42C290.833 54.98 289.853 53.86 288.613 53.06C287.373 52.26 285.993 51.86 284.473 51.86C282.913 51.86 281.513 52.28 280.273 53.12C279.033 53.92 278.053 55.04 277.333 56.48C276.613 57.88 276.253 59.5 276.253 61.34Z" fill="#EBEBEB"/>
<path d="M336.96 74.24V77H308.58V34.4H336.42V37.16H311.64V53.9H333.3V56.54H311.64V74.24H336.96ZM369.567 77H366.567V59.6C366.567 55.6 365.987 52.68 364.827 50.84C363.707 48.96 361.907 48.02 359.427 48.02C357.667 48.02 355.927 48.44 354.207 49.28C352.527 50.12 351.047 51.28 349.767 52.76C348.527 54.2 347.627 55.84 347.067 57.68V77H344.067V45.8H346.887V53.24C347.727 51.64 348.847 50.26 350.247 49.1C351.647 47.9 353.207 46.96 354.927 46.28C356.647 45.6 358.427 45.26 360.267 45.26C361.987 45.26 363.427 45.58 364.587 46.22C365.787 46.82 366.747 47.7 367.467 48.86C368.227 50.02 368.767 51.46 369.087 53.18C369.407 54.9 369.567 56.86 369.567 59.06V77ZM392.264 75.5C392.064 75.58 391.664 75.78 391.064 76.1C390.464 76.42 389.704 76.72 388.784 77C387.864 77.24 386.844 77.36 385.724 77.36C384.644 77.36 383.624 77.16 382.664 76.76C381.744 76.32 381.004 75.68 380.444 74.84C379.884 74 379.604 72.98 379.604 71.78V48.26H375.224V45.8H379.604V35.12H382.604V45.8H389.864V48.26H382.604V71.06C382.684 72.22 383.104 73.1 383.864 73.7C384.624 74.26 385.504 74.54 386.504 74.54C387.744 74.54 388.824 74.34 389.744 73.94C390.664 73.5 391.204 73.22 391.364 73.1L392.264 75.5ZM410.237 77.6C408.037 77.6 405.997 77.18 404.117 76.34C402.237 75.46 400.597 74.28 399.197 72.8C397.837 71.28 396.757 69.54 395.957 67.58C395.197 65.58 394.817 63.48 394.817 61.28C394.817 58.32 395.477 55.64 396.797 53.24C398.117 50.84 399.937 48.92 402.257 47.48C404.577 46 407.177 45.26 410.057 45.26C413.017 45.26 415.637 46 417.917 47.48C420.197 48.96 421.997 50.92 423.317 53.36C424.677 55.76 425.357 58.4 425.357 61.28C425.357 61.52 425.357 61.76 425.357 62C425.357 62.24 425.337 62.44 425.297 62.6H397.937C398.097 64.96 398.757 67.1 399.917 69.02C401.077 70.94 402.557 72.46 404.357 73.58C406.197 74.66 408.197 75.2 410.357 75.2C412.517 75.2 414.557 74.64 416.477 73.52C418.397 72.4 419.737 70.96 420.497 69.2L423.137 69.92C422.537 71.4 421.577 72.72 420.257 73.88C418.977 75.04 417.457 75.96 415.697 76.64C413.977 77.28 412.157 77.6 410.237 77.6ZM397.817 60.26H422.477C422.317 57.82 421.677 55.66 420.557 53.78C419.437 51.9 417.957 50.42 416.117 49.34C414.317 48.26 412.317 47.72 410.117 47.72C407.917 47.72 405.917 48.26 404.117 49.34C402.317 50.42 400.857 51.9 399.737 53.78C398.617 55.66 397.977 57.82 397.817 60.26ZM444.557 77.48C442.437 77.48 440.457 77.04 438.617 76.16C436.817 75.28 435.257 74.08 433.937 72.56C432.657 71 431.637 69.28 430.877 67.4C430.157 65.48 429.797 63.5 429.797 61.46C429.797 59.34 430.137 57.3 430.817 55.34C431.537 53.38 432.537 51.66 433.817 50.18C435.137 48.66 436.677 47.46 438.437 46.58C440.197 45.7 442.157 45.26 444.317 45.26C447.037 45.26 449.397 45.98 451.397 47.42C453.437 48.82 455.157 50.54 456.557 52.58V45.8H459.317V77.6C459.317 80.4 458.637 82.76 457.277 84.68C455.917 86.6 454.117 88.02 451.877 88.94C449.637 89.9 447.217 90.38 444.617 90.38C440.977 90.38 438.077 89.72 435.917 88.4C433.797 87.08 432.077 85.34 430.757 83.18L432.797 81.8C434.037 83.88 435.717 85.42 437.837 86.42C439.957 87.42 442.217 87.92 444.617 87.92C446.737 87.92 448.677 87.52 450.437 86.72C452.237 85.96 453.657 84.8 454.697 83.24C455.777 81.72 456.317 79.84 456.317 77.6V70.76C455.077 72.8 453.377 74.44 451.217 75.68C449.097 76.88 446.877 77.48 444.557 77.48ZM445.277 74.9C446.597 74.9 447.877 74.66 449.117 74.18C450.357 73.7 451.497 73.06 452.537 72.26C453.577 71.42 454.437 70.5 455.117 69.5C455.797 68.5 456.197 67.5 456.317 66.5V56.24C455.717 54.64 454.797 53.22 453.557 51.98C452.357 50.7 450.997 49.72 449.477 49.04C447.957 48.32 446.397 47.96 444.797 47.96C442.917 47.96 441.237 48.36 439.757 49.16C438.277 49.96 437.017 51.02 435.977 52.34C434.977 53.62 434.197 55.08 433.637 56.72C433.117 58.32 432.857 59.92 432.857 61.52C432.857 63.32 433.177 65.02 433.817 66.62C434.457 68.22 435.337 69.66 436.457 70.94C437.617 72.18 438.937 73.16 440.417 73.88C441.937 74.56 443.557 74.9 445.277 74.9ZM483.456 48.5C480.656 48.58 478.196 49.42 476.076 51.02C473.996 52.58 472.536 54.74 471.696 57.5V77H468.696V45.8H471.576V53.48C472.656 51.28 474.096 49.5 475.896 48.14C477.696 46.74 479.596 45.94 481.596 45.74C481.996 45.7 482.356 45.68 482.676 45.68C482.996 45.68 483.256 45.68 483.456 45.68V48.5ZM486.33 68C486.33 66.12 486.89 64.5 488.01 63.14C489.13 61.74 490.67 60.66 492.63 59.9C494.59 59.1 496.85 58.7 499.41 58.7C501.01 58.7 502.67 58.84 504.39 59.12C506.11 59.4 507.65 59.78 509.01 60.26V57.32C509.01 54.44 508.17 52.14 506.49 50.42C504.85 48.7 502.57 47.84 499.65 47.84C498.09 47.84 496.47 48.16 494.79 48.8C493.11 49.44 491.39 50.36 489.63 51.56L488.37 49.4C490.41 48.04 492.37 47.02 494.25 46.34C496.17 45.62 498.07 45.26 499.95 45.26C503.67 45.26 506.61 46.36 508.77 48.56C510.93 50.76 512.01 53.76 512.01 57.56V73.04C512.01 73.52 512.11 73.88 512.31 74.12C512.55 74.36 512.89 74.5 513.33 74.54V77C512.97 77.04 512.67 77.06 512.43 77.06C512.19 77.06 511.99 77.06 511.83 77.06C511.07 76.94 510.47 76.62 510.03 76.1C509.63 75.58 509.41 75 509.37 74.36V71.9C507.93 73.7 506.07 75.1 503.79 76.1C501.55 77.1 499.19 77.6 496.71 77.6C494.75 77.6 492.97 77.18 491.37 76.34C489.81 75.5 488.57 74.36 487.65 72.92C486.77 71.44 486.33 69.8 486.33 68ZM507.81 70.58C508.21 70.06 508.51 69.56 508.71 69.08C508.91 68.6 509.01 68.16 509.01 67.76V62.6C507.57 62.04 506.07 61.62 504.51 61.34C502.95 61.06 501.35 60.92 499.71 60.92C496.59 60.92 494.05 61.54 492.09 62.78C490.17 64.02 489.21 65.7 489.21 67.82C489.21 69.14 489.55 70.36 490.23 71.48C490.91 72.6 491.85 73.5 493.05 74.18C494.29 74.86 495.71 75.2 497.31 75.2C499.55 75.2 501.61 74.78 503.49 73.94C505.41 73.06 506.85 71.94 507.81 70.58ZM534.823 75.5C534.623 75.58 534.223 75.78 533.623 76.1C533.023 76.42 532.263 76.72 531.343 77C530.423 77.24 529.403 77.36 528.283 77.36C527.203 77.36 526.183 77.16 525.223 76.76C524.303 76.32 523.563 75.68 523.003 74.84C522.443 74 522.163 72.98 522.163 71.78V48.26H517.783V45.8H522.163V35.12H525.163V45.8H532.423V48.26H525.163V71.06C525.243 72.22 525.663 73.1 526.423 73.7C527.183 74.26 528.063 74.54 529.063 74.54C530.303 74.54 531.383 74.34 532.303 73.94C533.223 73.5 533.763 73.22 533.923 73.1L534.823 75.5ZM552.615 77.6C550.415 77.6 548.375 77.18 546.495 76.34C544.655 75.5 543.055 74.34 541.695 72.86C540.335 71.34 539.275 69.6 538.515 67.64C537.755 65.68 537.375 63.62 537.375 61.46C537.375 59.26 537.755 57.2 538.515 55.28C539.275 53.32 540.335 51.6 541.695 50.12C543.095 48.6 544.715 47.42 546.555 46.58C548.435 45.7 550.455 45.26 552.615 45.26C554.775 45.26 556.775 45.7 558.615 46.58C560.455 47.42 562.075 48.6 563.475 50.12C564.875 51.6 565.955 53.32 566.715 55.28C567.475 57.2 567.855 59.26 567.855 61.46C567.855 63.62 567.475 65.68 566.715 67.64C565.955 69.6 564.875 71.34 563.475 72.86C562.115 74.34 560.495 75.5 558.615 76.34C556.775 77.18 554.775 77.6 552.615 77.6ZM540.375 61.58C540.375 64.02 540.915 66.26 541.995 68.3C543.115 70.3 544.595 71.9 546.435 73.1C548.275 74.3 550.315 74.9 552.555 74.9C554.795 74.9 556.835 74.3 558.675 73.1C560.555 71.86 562.035 70.22 563.115 68.18C564.235 66.1 564.795 63.84 564.795 61.4C564.795 58.96 564.235 56.72 563.115 54.68C562.035 52.64 560.555 51.02 558.675 49.82C556.835 48.58 554.815 47.96 552.615 47.96C550.375 47.96 548.335 48.58 546.495 49.82C544.655 51.06 543.175 52.7 542.055 54.74C540.935 56.78 540.375 59.06 540.375 61.58ZM547.215 38.6V33.32H549.855V38.6H547.215ZM555.375 38.6V33.32H558.015V38.6H555.375ZM589.803 48.5C587.003 48.58 584.543 49.42 582.423 51.02C580.343 52.58 578.883 54.74 578.043 57.5V77H575.043V45.8H577.923V53.48C579.003 51.28 580.443 49.5 582.243 48.14C584.043 46.74 585.943 45.94 587.943 45.74C588.343 45.7 588.703 45.68 589.023 45.68C589.343 45.68 589.603 45.68 589.803 45.68V48.5Z" fill="#EBEBEB"/>
<g clip-path="url(#clip0_53_83)">
<mask id="mask0_53_83" style="mask-type:luminance" maskUnits="userSpaceOnUse" x="13" y="20" width="85" height="71">
<path d="M13.1748 20.2163H97.8237V90.7837H13.1748V20.2163Z" fill="white"/>
</mask>
<g mask="url(#mask0_53_83)">
<path fill-rule="evenodd" clip-rule="evenodd" d="M22.3099 34.6697C21.5886 34.9979 20.9697 35.5387 20.6015 36.2751L13.5474 50.3761C12.6476 52.1751 13.4319 54.3607 15.2696 55.1778L20.2295 57.3823V73.1229C20.2295 74.5169 21.0499 75.7802 22.3238 76.3468L54.0741 90.4551C54.9844 90.8587 56.0228 90.8587 56.9331 90.4551L88.6767 76.3468C89.9499 75.7804 90.771 74.5169 90.7703 73.1224V57.3818L95.7302 55.1773C97.568 54.3601 98.3521 52.1746 97.4524 50.3756L90.3983 36.2746C90.0328 35.5441 89.4198 35.0059 88.7037 34.6765L56.9333 20.5269C56.5014 20.3352 56.0348 20.2322 55.5622 20.2236C55.0477 20.2145 54.5377 20.3182 54.0671 20.5269L22.3099 34.6697ZM55.5001 27.6157V48.1021L32.443 37.8582L55.5001 27.6157ZM25.4031 42.4399L50.6914 53.6826L46.7929 61.4738L21.5046 50.2383L25.4031 42.4399ZM85.5971 42.4399L89.4963 50.2383L64.2079 61.4738L60.3087 53.6826L85.5971 42.4399ZM27.2849 60.5169L47.0152 69.2859C48.7367 70.0479 50.7529 69.3227 51.5957 67.6399L51.975 66.8818V81.8026L27.2849 70.829L27.2849 60.5169ZM83.717 60.5169V70.8296L59.0268 81.8032V66.8824L59.4055 67.6405C60.2482 69.324 62.2651 70.0485 63.9866 69.2872L83.717 60.5169Z" fill="white"/>
</g>
</g>
<rect x="0.5" y="0.5" width="110" height="110" rx="5.5" stroke="#EBEBEB"/>
<defs>
<clipPath id="clip0_53_83">
<rect width="111" height="111" rx="6" fill="white"/>
</clipPath>
</defs>
</svg>
