<svg width="1098" height="158" viewBox="0 0 1098 158" fill="none" xmlns="http://www.w3.org/2000/svg">
<path d="M186.88 119V33.92H203.44V74.36L239.2 33.8H257.44L224.8 71.6L259.48 119H240.76L214.24 82.28L203.44 93.56V119H186.88ZM260.805 100.4C260.805 96.32 261.925 92.76 264.165 89.72C266.485 86.6 269.685 84.2 273.765 82.52C277.845 80.84 282.525 80 287.805 80C290.445 80 293.125 80.2 295.845 80.6C298.565 81 300.925 81.64 302.925 82.52V79.16C302.925 75.16 301.725 72.08 299.325 69.92C297.005 67.76 293.525 66.68 288.885 66.68C285.445 66.68 282.165 67.28 279.045 68.48C275.925 69.68 272.645 71.44 269.205 73.76L264.045 63.2C268.205 60.48 272.445 58.44 276.765 57.08C281.165 55.72 285.765 55.04 290.565 55.04C299.525 55.04 306.485 57.28 311.445 61.76C316.485 66.24 319.005 72.64 319.005 80.96V101C319.005 102.68 319.285 103.88 319.845 104.6C320.485 105.32 321.485 105.76 322.845 105.92V119C321.405 119.24 320.085 119.44 318.885 119.6C317.765 119.76 316.805 119.84 316.005 119.84C312.805 119.84 310.365 119.12 308.685 117.68C307.085 116.24 306.085 114.48 305.685 112.4L305.325 109.16C302.605 112.68 299.205 115.4 295.125 117.32C291.045 119.24 286.885 120.2 282.645 120.2C278.485 120.2 274.725 119.36 271.365 117.68C268.085 115.92 265.485 113.56 263.565 110.6C261.725 107.56 260.805 104.16 260.805 100.4ZM299.925 103.64C300.805 102.68 301.525 101.72 302.085 100.76C302.645 99.8 302.925 98.92 302.925 98.12V91.76C301.005 90.96 298.925 90.36 296.685 89.96C294.445 89.48 292.325 89.24 290.325 89.24C286.165 89.24 282.725 90.16 280.005 92C277.365 93.76 276.045 96.12 276.045 99.08C276.045 100.68 276.485 102.2 277.365 103.64C278.245 105.08 279.525 106.24 281.205 107.12C282.885 108 284.885 108.44 287.205 108.44C289.605 108.44 291.965 108 294.285 107.12C296.605 106.16 298.485 105 299.925 103.64ZM371.471 70.04C366.591 70.04 362.231 71 358.391 72.92C354.551 74.76 351.791 77.44 350.111 80.96V119H334.031V56.12H348.791V69.56C351.031 65.24 353.871 61.84 357.311 59.36C360.751 56.88 364.391 55.52 368.231 55.28C369.111 55.28 369.791 55.28 370.271 55.28C370.751 55.28 371.151 55.32 371.471 55.4V70.04ZM404.451 119.36C400.291 119.36 396.451 118.56 392.931 116.96C389.491 115.28 386.491 112.96 383.931 110C381.451 107.04 379.531 103.64 378.171 99.8C376.811 95.96 376.131 91.88 376.131 87.56C376.131 83 376.851 78.76 378.291 74.84C379.731 70.92 381.731 67.48 384.291 64.52C386.931 61.48 390.011 59.16 393.531 57.56C397.131 55.88 401.091 55.04 405.411 55.04C410.291 55.04 414.571 56.16 418.251 58.4C421.931 60.56 424.971 63.48 427.371 67.16V56.12H441.411V116C441.411 122.24 439.891 127.56 436.851 131.96C433.891 136.44 429.771 139.84 424.491 142.16C419.211 144.56 413.211 145.76 406.491 145.76C399.691 145.76 393.931 144.6 389.211 142.28C384.491 140.04 380.451 136.84 377.091 132.68L385.851 124.16C388.251 127.12 391.251 129.44 394.851 131.12C398.531 132.8 402.411 133.64 406.491 133.64C409.931 133.64 413.051 133 415.851 131.72C418.731 130.52 421.011 128.6 422.691 125.96C424.451 123.4 425.331 120.08 425.331 116V108.08C423.251 111.68 420.291 114.48 416.451 116.48C412.691 118.4 408.691 119.36 404.451 119.36ZM409.851 106.52C411.611 106.52 413.291 106.24 414.891 105.68C416.491 105.12 417.971 104.36 419.331 103.4C420.691 102.44 421.891 101.32 422.931 100.04C423.971 98.68 424.771 97.32 425.331 95.96V80.96C424.371 78.48 423.011 76.32 421.251 74.48C419.571 72.64 417.651 71.24 415.491 70.28C413.411 69.24 411.211 68.72 408.891 68.72C406.411 68.72 404.171 69.24 402.171 70.28C400.171 71.32 398.451 72.8 397.011 74.72C395.571 76.56 394.451 78.64 393.651 80.96C392.931 83.2 392.571 85.56 392.571 88.04C392.571 90.6 393.011 93 393.891 95.24C394.771 97.48 395.971 99.44 397.491 101.12C399.091 102.8 400.931 104.12 403.011 105.08C405.171 106.04 407.451 106.52 409.851 106.52ZM484.946 120.2C479.826 120.2 475.226 119.36 471.146 117.68C467.066 115.92 463.586 113.52 460.706 110.48C457.906 107.44 455.746 103.96 454.226 100.04C452.706 96.12 451.946 92 451.946 87.68C451.946 83.28 452.706 79.12 454.226 75.2C455.746 71.28 457.906 67.8 460.706 64.76C463.586 61.72 467.066 59.36 471.146 57.68C475.226 55.92 479.826 55.04 484.946 55.04C490.066 55.04 494.626 55.92 498.626 57.68C502.706 59.36 506.186 61.72 509.066 64.76C511.946 67.8 514.106 71.28 515.546 75.2C517.066 79.12 517.826 83.28 517.826 87.68C517.826 92 517.066 96.12 515.546 100.04C514.106 103.96 511.946 107.44 509.066 110.48C506.266 113.52 502.826 115.92 498.746 117.68C494.666 119.36 490.066 120.2 484.946 120.2ZM468.506 87.68C468.506 91.36 469.226 94.64 470.666 97.52C472.106 100.32 474.066 102.52 476.546 104.12C479.026 105.72 481.826 106.52 484.946 106.52C487.986 106.52 490.746 105.72 493.226 104.12C495.706 102.44 497.666 100.2 499.106 97.4C500.626 94.52 501.386 91.24 501.386 87.56C501.386 83.96 500.626 80.72 499.106 77.84C497.666 74.96 495.706 72.72 493.226 71.12C490.746 69.52 487.986 68.72 484.946 68.72C481.826 68.72 479.026 69.56 476.546 71.24C474.066 72.84 472.106 75.08 470.666 77.96C469.226 80.76 468.506 84 468.506 87.68Z" fill="#3730A3"/>
<path d="M589.92 113.48V119H533.16V33.8H588.84V39.32H539.28V72.8H582.6V78.08H539.28V113.48H589.92ZM655.133 119H649.133V84.2C649.133 76.2 647.973 70.36 645.653 66.68C643.413 62.92 639.813 61.04 634.853 61.04C631.333 61.04 627.853 61.88 624.413 63.56C621.053 65.24 618.093 67.56 615.533 70.52C613.053 73.4 611.253 76.68 610.133 80.36V119H604.133V56.6H609.773V71.48C611.453 68.28 613.693 65.52 616.493 63.2C619.293 60.8 622.413 58.92 625.853 57.56C629.293 56.2 632.853 55.52 636.533 55.52C639.973 55.52 642.853 56.16 645.173 57.44C647.573 58.64 649.493 60.4 650.933 62.72C652.453 65.04 653.533 67.92 654.173 71.36C654.813 74.8 655.133 78.72 655.133 83.12V119ZM700.528 116C700.128 116.16 699.328 116.56 698.128 117.2C696.928 117.84 695.408 118.44 693.568 119C691.728 119.48 689.688 119.72 687.448 119.72C685.288 119.72 683.248 119.32 681.328 118.52C679.488 117.64 678.008 116.36 676.888 114.68C675.768 113 675.208 110.96 675.208 108.56V61.52H666.448V56.6H675.208V35.24H681.208V56.6H695.728V61.52H681.208V107.12C681.368 109.44 682.208 111.2 683.728 112.4C685.248 113.52 687.008 114.08 689.008 114.08C691.488 114.08 693.648 113.68 695.488 112.88C697.328 112 698.408 111.44 698.728 111.2L700.528 116ZM736.474 120.2C732.074 120.2 727.994 119.36 724.234 117.68C720.474 115.92 717.194 113.56 714.394 110.6C711.674 107.56 709.514 104.08 707.914 100.16C706.394 96.16 705.634 91.96 705.634 87.56C705.634 81.64 706.954 76.28 709.594 71.48C712.234 66.68 715.874 62.84 720.514 59.96C725.154 57 730.354 55.52 736.114 55.52C742.034 55.52 747.274 57 751.834 59.96C756.394 62.92 759.994 66.84 762.634 71.72C765.354 76.52 766.714 81.8 766.714 87.56C766.714 88.04 766.714 88.52 766.714 89C766.714 89.48 766.674 89.88 766.594 90.2H711.874C712.194 94.92 713.514 99.2 715.834 103.04C718.154 106.88 721.114 109.92 724.714 112.16C728.394 114.32 732.394 115.4 736.714 115.4C741.034 115.4 745.114 114.28 748.954 112.04C752.794 109.8 755.474 106.92 756.994 103.4L762.274 104.84C761.074 107.8 759.154 110.44 756.514 112.76C753.954 115.08 750.914 116.92 747.394 118.28C743.954 119.56 740.314 120.2 736.474 120.2ZM711.634 85.52H760.954C760.634 80.64 759.354 76.32 757.114 72.56C754.874 68.8 751.914 65.84 748.234 63.68C744.634 61.52 740.634 60.44 736.234 60.44C731.834 60.44 727.834 61.52 724.234 63.68C720.634 65.84 717.714 68.8 715.474 72.56C713.234 76.32 711.954 80.64 711.634 85.52ZM805.115 119.96C800.875 119.96 796.915 119.08 793.235 117.32C789.635 115.56 786.515 113.16 783.875 110.12C781.315 107 779.275 103.56 777.755 99.8C776.315 95.96 775.595 92 775.595 87.92C775.595 83.68 776.275 79.6 777.635 75.68C779.075 71.76 781.075 68.32 783.635 65.36C786.275 62.32 789.355 59.92 792.875 58.16C796.395 56.4 800.315 55.52 804.635 55.52C810.075 55.52 814.795 56.96 818.795 59.84C822.875 62.64 826.315 66.08 829.115 70.16V56.6H834.635V120.2C834.635 125.8 833.275 130.52 830.555 134.36C827.835 138.2 824.235 141.04 819.755 142.88C815.275 144.8 810.435 145.76 805.235 145.76C797.955 145.76 792.155 144.44 787.835 141.8C783.595 139.16 780.155 135.68 777.515 131.36L781.595 128.6C784.075 132.76 787.435 135.84 791.675 137.84C795.915 139.84 800.435 140.84 805.235 140.84C809.475 140.84 813.355 140.04 816.875 138.44C820.475 136.92 823.315 134.6 825.395 131.48C827.555 128.44 828.635 124.68 828.635 120.2V106.52C826.155 110.6 822.755 113.88 818.435 116.36C814.195 118.76 809.755 119.96 805.115 119.96ZM806.555 114.8C809.195 114.8 811.755 114.32 814.235 113.36C816.715 112.4 818.995 111.12 821.075 109.52C823.155 107.84 824.875 106 826.235 104C827.595 102 828.395 100 828.635 98V77.48C827.435 74.28 825.595 71.44 823.115 68.96C820.715 66.4 817.995 64.44 814.955 63.08C811.915 61.64 808.795 60.92 805.595 60.92C801.835 60.92 798.475 61.72 795.515 63.32C792.555 64.92 790.035 67.04 787.955 69.68C785.955 72.24 784.395 75.16 783.275 78.44C782.235 81.64 781.715 84.84 781.715 88.04C781.715 91.64 782.355 95.04 783.635 98.24C784.915 101.44 786.675 104.32 788.915 106.88C791.235 109.36 793.875 111.32 796.835 112.76C799.875 114.12 803.115 114.8 806.555 114.8ZM882.911 62C877.311 62.16 872.391 63.84 868.151 67.04C863.991 70.16 861.071 74.48 859.391 80V119H853.391V56.6H859.151V71.96C861.311 67.56 864.191 64 867.791 61.28C871.391 58.48 875.191 56.88 879.191 56.48C879.991 56.4 880.711 56.36 881.351 56.36C881.991 56.36 882.511 56.36 882.911 56.36V62ZM888.661 101C888.661 97.24 889.781 94 892.021 91.28C894.261 88.48 897.341 86.32 901.261 84.8C905.181 83.2 909.701 82.4 914.821 82.4C918.021 82.4 921.341 82.68 924.781 83.24C928.221 83.8 931.301 84.56 934.021 85.52V79.64C934.021 73.88 932.341 69.28 928.981 65.84C925.701 62.4 921.141 60.68 915.301 60.68C912.181 60.68 908.941 61.32 905.581 62.6C902.221 63.88 898.781 65.72 895.261 68.12L892.741 63.8C896.821 61.08 900.741 59.04 904.501 57.68C908.341 56.24 912.141 55.52 915.901 55.52C923.341 55.52 929.221 57.72 933.541 62.12C937.861 66.52 940.021 72.52 940.021 80.12V111.08C940.021 112.04 940.221 112.76 940.621 113.24C941.101 113.72 941.781 114 942.661 114.08V119C941.941 119.08 941.341 119.12 940.861 119.12C940.381 119.12 939.981 119.12 939.661 119.12C938.141 118.88 936.941 118.24 936.061 117.2C935.261 116.16 934.821 115 934.741 113.72V108.8C931.861 112.4 928.141 115.2 923.581 117.2C919.101 119.2 914.381 120.2 909.421 120.2C905.501 120.2 901.941 119.36 898.741 117.68C895.621 116 893.141 113.72 891.301 110.84C889.541 107.88 888.661 104.6 888.661 101ZM931.621 106.16C932.421 105.12 933.021 104.12 933.421 103.16C933.821 102.2 934.021 101.32 934.021 100.52V90.2C931.141 89.08 928.141 88.24 925.021 87.68C921.901 87.12 918.701 86.84 915.421 86.84C909.181 86.84 904.101 88.08 900.181 90.56C896.341 93.04 894.421 96.4 894.421 100.64C894.421 103.28 895.101 105.72 896.461 107.96C897.821 110.2 899.701 112 902.101 113.36C904.581 114.72 907.421 115.4 910.621 115.4C915.101 115.4 919.221 114.56 922.981 112.88C926.821 111.12 929.701 108.88 931.621 106.16ZM985.645 116C985.245 116.16 984.445 116.56 983.245 117.2C982.045 117.84 980.525 118.44 978.685 119C976.845 119.48 974.805 119.72 972.565 119.72C970.405 119.72 968.365 119.32 966.445 118.52C964.605 117.64 963.125 116.36 962.005 114.68C960.885 113 960.325 110.96 960.325 108.56V61.52H951.565V56.6H960.325V35.24H966.325V56.6H980.845V61.52H966.325V107.12C966.485 109.44 967.325 111.2 968.845 112.4C970.365 113.52 972.125 114.08 974.125 114.08C976.605 114.08 978.765 113.68 980.605 112.88C982.445 112 983.525 111.44 983.845 111.2L985.645 116ZM1021.23 120.2C1016.83 120.2 1012.75 119.36 1008.99 117.68C1005.31 116 1002.11 113.68 999.391 110.72C996.671 107.68 994.551 104.2 993.031 100.28C991.511 96.36 990.751 92.24 990.751 87.92C990.751 83.52 991.511 79.4 993.031 75.56C994.551 71.64 996.671 68.2 999.391 65.24C1002.19 62.2 1005.43 59.84 1009.11 58.16C1012.87 56.4 1016.91 55.52 1021.23 55.52C1025.55 55.52 1029.55 56.4 1033.23 58.16C1036.91 59.84 1040.15 62.2 1042.95 65.24C1045.75 68.2 1047.91 71.64 1049.43 75.56C1050.95 79.4 1051.71 83.52 1051.71 87.92C1051.71 92.24 1050.95 96.36 1049.43 100.28C1047.91 104.2 1045.75 107.68 1042.95 110.72C1040.23 113.68 1036.99 116 1033.23 117.68C1029.55 119.36 1025.55 120.2 1021.23 120.2ZM996.751 88.16C996.751 93.04 997.831 97.52 999.991 101.6C1002.23 105.6 1005.19 108.8 1008.87 111.2C1012.55 113.6 1016.63 114.8 1021.11 114.8C1025.59 114.8 1029.67 113.6 1033.35 111.2C1037.11 108.72 1040.07 105.44 1042.23 101.36C1044.47 97.2 1045.59 92.68 1045.59 87.8C1045.59 82.92 1044.47 78.44 1042.23 74.36C1040.07 70.28 1037.11 67.04 1033.35 64.64C1029.67 62.16 1025.63 60.92 1021.23 60.92C1016.75 60.92 1012.67 62.16 1008.99 64.64C1005.31 67.12 1002.35 70.4 1000.11 74.48C997.871 78.56 996.751 83.12 996.751 88.16ZM1010.43 42.2V31.64H1015.71V42.2H1010.43ZM1026.75 42.2V31.64H1032.03V42.2H1026.75ZM1095.61 62C1090.01 62.16 1085.09 63.84 1080.85 67.04C1076.69 70.16 1073.77 74.48 1072.09 80V119H1066.09V56.6H1071.85V71.96C1074.01 67.56 1076.89 64 1080.49 61.28C1084.09 58.48 1087.89 56.88 1091.89 56.48C1092.69 56.4 1093.41 56.36 1094.05 56.36C1094.69 56.36 1095.21 56.36 1095.61 56.36V62Z" fill="#3730A3"/>
<g clip-path="url(#clip0_53_63)">
<path d="M0 0H158V158H0V0Z" fill="url(#paint0_linear_53_63)"/>
<mask id="mask0_53_63" style="mask-type:luminance" maskUnits="userSpaceOnUse" x="18" y="28" width="122" height="102">
<path d="M18.7529 28.7764H139.244V129.224H18.7529V28.7764Z" fill="white"/>
</mask>
<g mask="url(#mask0_53_63)">
<path fill-rule="evenodd" clip-rule="evenodd" d="M31.7559 49.3497C30.7292 49.8168 29.8483 50.5866 29.3242 51.6348L19.2833 71.7066C18.0024 74.2673 19.1188 77.3783 21.7347 78.5413L28.7947 81.6793V104.085C28.7947 106.069 29.9624 107.867 31.7758 108.674L76.9699 128.756C78.2657 129.33 79.7437 129.33 81.0394 128.756L126.224 108.674C128.036 107.868 129.205 106.069 129.204 104.084V81.6786L136.264 78.5406C138.88 77.3775 139.996 74.2666 138.716 71.7059L128.675 51.6341C128.154 50.5943 127.282 49.8283 126.262 49.3593L81.0397 29.2184C80.425 28.9456 79.7607 28.799 79.0881 28.7868C78.3557 28.7737 77.6298 28.9213 76.9599 29.2184L31.7559 49.3497ZM78.9996 39.3088V68.4696L46.1797 53.8883L78.9996 39.3088ZM36.1589 60.4099L72.1549 76.4131L66.6056 87.5032L30.6097 71.5103L36.1589 60.4099ZM121.84 60.4099L127.391 71.5103L91.3946 87.5032L85.8444 76.4131L121.84 60.4099ZM38.8375 86.1412L66.9221 98.6232C69.3725 99.7078 72.2424 98.6755 73.442 96.2801L73.982 95.2011V116.44L38.8374 100.82L38.8375 86.1412ZM119.164 86.1412V100.821L84.0196 116.441V95.202L84.5587 96.281C85.7582 98.6774 88.6292 99.7087 91.0796 98.625L119.164 86.1412Z" fill="white"/>
</g>
</g>
<defs>
<linearGradient id="paint0_linear_53_63" x1="79" y1="158" x2="79" y2="0" gradientUnits="userSpaceOnUse">
<stop stop-color="#1D76F2"/>
<stop offset="1" stop-color="#3730A3"/>
</linearGradient>
<clipPath id="clip0_53_63">
<rect width="158" height="158" rx="6" fill="white"/>
</clipPath>
</defs>
</svg>
