<svg width="20" height="20" viewBox="0 0 26 25" fill="none" xmlns="http://www.w3.org/2000/svg">
<path d="M25.6242 5.75469C25.4882 5.5452 25.2944 5.37965 25.0662 5.27806L13.4411 0.11137C13.2761 0.0379419 13.0974 0 12.9167 0C12.736 0 12.5574 0.0379419 12.3923 0.11137L0.767253 5.27806C0.538861 5.37953 0.344809 5.54507 0.208624 5.75462C0.0724383 5.96417 -3.1709e-05 6.20873 1.0408e-08 6.45865V24.5421H2.58334V7.29824L12.9167 2.70505L23.2501 7.29824V24.5421H25.8334V6.45865C25.8333 6.20869 25.7606 5.96415 25.6242 5.75469ZM15.5001 9.04199H20.6668V14.2087H15.5001V9.04199ZM12.9167 11.6253H5.16669V24.5421H12.9167V11.6253ZM20.6668 16.792H15.5001V24.5421H20.6668V16.792Z" fill="#5C5F62"/>
</svg>
