<svg width="20" height="20" viewBox="0 0 26 26" fill="none" xmlns="http://www.w3.org/2000/svg">
<path fill-rule="evenodd" clip-rule="evenodd" d="M2.70019 0C1.98406 0 1.29725 0.284484 0.790868 0.790868C0.284484 1.29725 0 1.98406 0 2.70019V22.5016C0 23.2177 0.284484 23.9045 0.790868 24.4109C1.29725 24.9173 1.98406 25.2018 2.70019 25.2018H22.5016C23.2177 25.2018 23.9045 24.9173 24.4109 24.4109C24.9173 23.9045 25.2018 23.2177 25.2018 22.5016V2.70019C25.2018 1.98406 24.9173 1.29725 24.4109 0.790868C23.9045 0.284484 23.2177 0 22.5016 0H2.70019ZM19.274 10.2733C19.6019 9.93382 19.7833 9.4791 19.7792 9.00712C19.7751 8.53513 19.5858 8.08363 19.252 7.74987C18.9183 7.41612 18.4668 7.2268 17.9948 7.2227C17.5228 7.2186 17.0681 7.40004 16.7286 7.72795L10.8008 13.6558L8.4732 11.3282C8.13369 11.0003 7.67897 10.8189 7.20699 10.823C6.735 10.8271 6.28351 11.0164 5.94975 11.3501C5.61599 11.6839 5.42667 12.1354 5.42257 12.6074C5.41847 13.0794 5.59991 13.5341 5.92782 13.8736L9.52807 17.4738C9.86565 17.8113 10.3234 18.0009 10.8008 18.0009C11.2781 18.0009 11.7359 17.8113 12.0735 17.4738L19.274 10.2733Z" fill="#5C5F62"/>
</svg>
