<svg width="20" height="20" viewBox="0 0 29 24" fill="none" xmlns="http://www.w3.org/2000/svg">
<path fill-rule="evenodd" clip-rule="evenodd" d="M2.11765 0C1.55601 0 1.01738 0.223109 0.620244 0.620245C0.223109 1.01738 0 1.55601 0 2.11765L0 17.6471C0 18.2087 0.223109 18.7473 0.620244 19.1445C1.01738 19.5416 1.55601 19.7647 2.11765 19.7647H2.82353C2.82353 20.888 3.26975 21.9652 4.06402 22.7595C4.85829 23.5538 5.93555 24 7.05882 24C8.18209 24 9.25936 23.5538 10.0536 22.7595C10.8479 21.9652 11.2941 20.888 11.2941 19.7647H16.9412C16.9412 20.888 17.3874 21.9652 18.1817 22.7595C18.9759 23.5538 20.0532 24 21.1765 24C22.2997 24 23.377 23.5538 24.1713 22.7595C24.9655 21.9652 25.4118 20.888 25.4118 19.7647H26.1176C26.6793 19.7647 27.2179 19.5416 27.615 19.1445C28.0122 18.7473 28.2353 18.2087 28.2353 17.6471V12.9021C28.2353 12.5182 28.1308 12.1414 27.9332 11.8122L24.0042 5.26306C23.8161 4.9496 23.55 4.6902 23.2318 4.51009C22.9137 4.32999 22.5543 4.23532 22.1887 4.23529H18.3529V2.11765C18.3529 1.55601 18.1298 1.01738 17.7327 0.620245C17.3356 0.223109 16.7969 0 16.2353 0H2.11765ZM21.1765 21.1765C20.802 21.1765 20.443 21.0277 20.1782 20.763C19.9134 20.4982 19.7647 20.1391 19.7647 19.7647C19.7647 19.3903 19.9134 19.0312 20.1782 18.7664C20.443 18.5017 20.802 18.3529 21.1765 18.3529C21.5509 18.3529 21.91 18.5017 22.1747 18.7664C22.4395 19.0312 22.5882 19.3903 22.5882 19.7647C22.5882 20.1391 22.4395 20.4982 22.1747 20.763C21.91 21.0277 21.5509 21.1765 21.1765 21.1765ZM5.64706 19.7647C5.64706 20.1391 5.7958 20.4982 6.06056 20.763C6.32531 21.0277 6.6844 21.1765 7.05882 21.1765C7.43325 21.1765 7.79233 21.0277 8.05709 20.763C8.32185 20.4982 8.47059 20.1391 8.47059 19.7647C8.47059 19.3903 8.32185 19.0312 8.05709 18.7664C7.79233 18.5017 7.43325 18.3529 7.05882 18.3529C6.6844 18.3529 6.32531 18.5017 6.06056 18.7664C5.7958 19.0312 5.64706 19.3903 5.64706 19.7647ZM24.3304 11.2941H18.3529V7.05882H21.7892L24.3304 11.2941Z" fill="#5C5F62"/>
</svg>
