<svg width="20" height="20" viewBox="0 0 20 29" fill="none" xmlns="http://www.w3.org/2000/svg">
<path fill-rule="evenodd" clip-rule="evenodd" d="M17.8571 0H2.14286C0.960008 0 8.3976e-06 0.967142 8.3976e-06 2.16143V28.1714C-0.000416659 28.2269 0.0153028 28.2812 0.04525 28.3279C0.0751971 28.3746 0.118078 28.4115 0.168662 28.4342C0.219246 28.4569 0.275348 28.4645 0.330125 28.4558C0.384902 28.4472 0.435988 28.4228 0.477151 28.3857L2.85429 26.2214C2.9851 26.102 3.15579 26.0359 3.33286 26.0359C3.50994 26.0359 3.68063 26.102 3.81143 26.2214L6.18857 28.3843C6.46 28.6314 6.87429 28.6314 7.14572 28.3843L9.52143 26.2214C9.65223 26.102 9.82292 26.0359 10 26.0359C10.1771 26.0359 10.3478 26.102 10.4786 26.2214L12.8543 28.3843C13.1257 28.6314 13.54 28.6314 13.8114 28.3843L16.1886 26.2214C16.3194 26.102 16.4901 26.0359 16.6671 26.0359C16.8442 26.0359 17.0149 26.102 17.1457 26.2214L19.5229 28.3857C19.564 28.4228 19.6151 28.4472 19.6699 28.4558C19.7247 28.4645 19.7808 28.4569 19.8313 28.4342C19.8819 28.4115 19.9248 28.3746 19.9547 28.3279C19.9847 28.2812 20.0004 28.2269 20 28.1714V2.16143C20 0.967142 19.04 0 17.8571 0ZM17.1429 7.14285V5.71428H2.85715V8.57142H17.1429V7.14285ZM17.1429 11.4286V14.2857H2.85715V11.4286H17.1429ZM11.4286 18.5714V17.1428H2.85715V20H11.4286V18.5714Z" fill="#5C5F62"/>
</svg>
