<svg width="20" height="20" viewBox="0 0 26 24" fill="none" xmlns="http://www.w3.org/2000/svg">
<path d="M25.4118 4.2353H14.1176V6.45865e-06H21.4969C22.0362 -0.00140531 22.536 0.228712 22.8071 0.605653L25.4118 4.2353ZM3.91482 6.45865e-06H11.2941V4.2353H0L2.60471 0.605653C2.87576 0.228712 3.37553 -0.00140531 3.91482 6.45865e-06ZM0 7.05883V21.8824C0 22.444 0.223109 22.9826 0.620244 23.3798C1.01738 23.7769 1.55601 24 2.11765 24H23.2941C23.8557 24 24.3944 23.7769 24.7915 23.3798C25.1886 22.9826 25.4118 22.444 25.4118 21.8824V7.05883H0ZM2.82353 9.88236H11.2941V15.5294H2.82353V9.88236Z" fill="#5C5F62"/>
</svg>
